<svg width="33" height="33" viewBox="0 0 33 33" fill="none" xmlns="http://www.w3.org/2000/svg">
<circle cx="16.5" cy="16.5" r="16.5" fill="white"/>
<g filter="url(#filter0_dii_171_164)">
<path d="M26.9297 26.2148C26.3483 26.9447 25.6309 27.5817 24.7773 28.126C23.9238 28.6702 23.0085 29.1217 22.0312 29.4805C21.054 29.8392 20.0521 30.1051 19.0254 30.2783C17.9987 30.4639 17.0215 30.5566 16.0938 30.5566C14.3001 30.5566 12.6488 30.235 11.1396 29.5918C9.63053 28.9486 8.32552 28.0641 7.22461 26.9385C6.13607 25.8005 5.28255 24.4645 4.66406 22.9307C4.04557 21.3968 3.73633 19.7454 3.73633 17.9766C3.73633 16.6283 3.89095 15.3109 4.2002 14.0244C4.50944 12.7256 4.94857 11.5072 5.51758 10.3691C6.09896 9.21875 6.80404 8.16732 7.63281 7.21484C8.46159 6.25 9.40169 5.42122 10.4531 4.72852C11.5046 4.03581 12.6549 3.49772 13.9043 3.11426C15.1536 2.73079 16.4896 2.53906 17.9121 2.53906C18.444 2.53906 19.013 2.5638 19.6191 2.61328C20.2253 2.65039 20.8252 2.72461 21.4189 2.83594C22.0251 2.9349 22.6126 3.07715 23.1816 3.2627C23.7507 3.44824 24.2702 3.67708 24.7402 3.94922L24.2207 11.0371C23.528 10.7773 22.8105 10.6042 22.0684 10.5176C21.3385 10.4186 20.6211 10.3691 19.916 10.3691C18.9264 10.3691 17.9987 10.5238 17.1328 10.833C16.2793 11.1299 15.5309 11.5628 14.8877 12.1318C14.2568 12.7008 13.7559 13.3936 13.3848 14.21C13.0137 15.0264 12.8281 15.9479 12.8281 16.9746C12.8281 17.6178 12.9147 18.2425 13.0879 18.8486C13.2611 19.4424 13.5208 19.9743 13.8672 20.4443C14.2259 20.902 14.665 21.2731 15.1846 21.5576C15.7165 21.8421 16.3288 21.9844 17.0215 21.9844C17.4915 21.9844 17.974 21.9225 18.4688 21.7988C18.9759 21.6751 19.4089 21.4648 19.7676 21.168L19.8418 19.7207L15.3887 19.6465L15.6113 14.0801C17.4544 14.0182 19.2975 13.9688 21.1406 13.9316C22.9837 13.8822 24.8392 13.8203 26.707 13.7461L26.9297 26.2148Z" fill="#7FFF00"/>
<path d="M26.9297 26.2148L27.7118 26.8379L27.9359 26.5566L27.9295 26.197L26.9297 26.2148ZM22.0312 29.4805L21.6866 28.5417L22.0312 29.4805ZM19.0254 30.2783L18.8591 29.2922L18.8475 29.2943L19.0254 30.2783ZM7.22461 26.9385L6.50192 27.6297L6.50969 27.6377L7.22461 26.9385ZM4.66406 22.9307L3.73662 23.3046L4.66406 22.9307ZM4.2002 14.0244L5.1725 14.2581L5.173 14.256L4.2002 14.0244ZM5.51758 10.3691L4.62507 9.91809L4.62315 9.92193L5.51758 10.3691ZM7.63281 7.21484L8.38722 7.87128L8.39138 7.86644L7.63281 7.21484ZM13.9043 3.11426L13.6109 2.15827L13.9043 3.11426ZM19.6191 2.61328L19.5378 3.60997L19.5479 3.61079L19.558 3.61141L19.6191 2.61328ZM21.4189 2.83594L21.2347 3.81881L21.2462 3.82098L21.2578 3.82287L21.4189 2.83594ZM24.7402 3.94922L25.7376 4.02232L25.7833 3.39763L25.2413 3.08379L24.7402 3.94922ZM24.2207 11.0371L23.8696 11.9734L25.1204 12.4425L25.218 11.1102L24.2207 11.0371ZM22.0684 10.5176L21.934 11.5085L21.9432 11.5098L21.9525 11.5108L22.0684 10.5176ZM17.1328 10.833L17.4613 11.7775L17.4691 11.7747L17.1328 10.833ZM14.8877 12.1318L14.2251 11.3828L14.2179 11.3893L14.8877 12.1318ZM13.0879 18.8486L12.1264 19.1234L12.1279 19.1286L13.0879 18.8486ZM13.8672 20.4443L13.0621 21.0375L13.071 21.0495L13.0801 21.0612L13.8672 20.4443ZM15.1846 21.5576L14.7042 22.4348L14.7129 22.4394L15.1846 21.5576ZM18.4688 21.7988L18.2318 20.8273L18.2262 20.8287L18.4688 21.7988ZM19.7676 21.168L20.4051 21.9384L20.7438 21.6581L20.7663 21.2192L19.7676 21.168ZM19.8418 19.7207L20.8405 19.7719L20.8935 18.7381L19.8585 18.7208L19.8418 19.7207ZM15.3887 19.6465L14.3895 19.6065L14.3486 20.6293L15.372 20.6463L15.3887 19.6465ZM15.6113 14.0801L15.5778 13.0806L14.6493 13.1118L14.6121 14.0401L15.6113 14.0801ZM21.1406 13.9316L21.1608 14.9315L21.1675 14.9313L21.1406 13.9316ZM26.707 13.7461L27.7069 13.7282L27.6886 12.7063L26.6673 12.7469L26.707 13.7461ZM26.1475 25.5918C25.6405 26.2282 25.008 26.7929 24.2397 27.2828L25.315 28.9691C26.2537 28.3705 27.0561 27.6611 27.7118 26.8379L26.1475 25.5918ZM24.2397 27.2828C23.4486 27.7873 22.5982 28.2071 21.6866 28.5417L22.3759 30.4192C23.4188 30.0364 24.3991 29.5532 25.315 28.9691L24.2397 27.2828ZM21.6866 28.5417C20.7673 28.8792 19.825 29.1293 18.8591 29.2922L19.1917 31.2644C20.2792 31.081 21.3408 30.7992 22.3759 30.4192L21.6866 28.5417ZM18.8475 29.2943C17.8724 29.4705 16.955 29.5566 16.0938 29.5566V31.5566C17.088 31.5566 18.125 31.4572 19.2032 31.2624L18.8475 29.2943ZM16.0938 29.5566C14.4222 29.5566 12.9057 29.2575 11.5317 28.6719L10.7475 30.5117C12.3918 31.2125 14.178 31.5566 16.0938 31.5566V29.5566ZM11.5317 28.6719C10.1385 28.0781 8.94456 27.2669 7.93953 26.2393L6.50969 27.6377C7.70648 28.8614 9.12252 29.8191 10.7475 30.5117L11.5317 28.6719ZM7.94725 26.2473C6.95087 25.2056 6.16491 23.9788 5.5915 22.5567L3.73662 23.3046C4.40019 24.9503 5.32127 26.3953 6.50197 27.6297L7.94725 26.2473ZM5.5915 22.5567C5.0242 21.1498 4.73633 19.6263 4.73633 17.9766H2.73633C2.73633 19.8646 3.06695 21.6438 3.73662 23.3046L5.5915 22.5567ZM4.73633 17.9766C4.73633 16.7055 4.882 15.4666 5.1725 14.2581L3.22789 13.7907C2.8999 15.1551 2.73633 16.551 2.73633 17.9766H4.73633ZM5.173 14.256C5.46535 13.0282 5.87895 11.8825 6.41201 10.8164L4.62315 9.92193C4.01818 11.1319 3.55353 12.423 3.22739 13.7928L5.173 14.256ZM6.41008 10.8202C6.95489 9.74216 7.61392 8.75996 8.38721 7.87126L6.87842 6.55842C5.99415 7.57467 5.24303 8.69534 4.62508 9.91809L6.41008 10.8202ZM8.39138 7.86644C9.16018 6.97142 10.0303 6.20459 11.0033 5.56358L9.90297 3.89345C8.77307 4.63785 7.763 5.52858 6.87424 6.56325L8.39138 7.86644ZM11.0033 5.56358C11.9723 4.92513 13.0358 4.42687 14.1977 4.07024L13.6109 2.15827C12.2741 2.56857 11.0368 3.14648 9.90297 3.89345L11.0033 5.56358ZM14.1977 4.07024C15.344 3.71842 16.5803 3.53906 17.9121 3.53906V1.53906C16.3989 1.53906 14.9633 1.74317 13.6109 2.15827L14.1977 4.07024ZM17.9121 3.53906C18.4133 3.53906 18.955 3.56239 19.5378 3.60997L19.7005 1.6166C19.0711 1.56521 18.4747 1.53906 17.9121 1.53906V3.53906ZM19.558 3.61141C20.123 3.646 20.6818 3.71515 21.2347 3.81881L21.6032 1.85307C20.9686 1.73407 20.3275 1.65478 19.6803 1.61515L19.558 3.61141ZM21.2578 3.82287C21.8148 3.9138 22.3525 4.04414 22.8716 4.21343L23.4917 2.31197C22.8728 2.11015 22.2354 1.95599 21.5801 1.849L21.2578 3.82287ZM22.8716 4.21343C23.3808 4.37946 23.8354 4.58089 24.2392 4.81465L25.2413 3.08379C24.7049 2.77328 24.1205 2.51702 23.4917 2.31197L22.8716 4.21343ZM23.7429 3.87612L23.2234 10.964L25.218 11.1102L25.7376 4.02232L23.7429 3.87612ZM24.5718 10.1008C23.8025 9.8123 23.006 9.62019 22.1842 9.52431L21.9525 11.5108C22.615 11.5881 23.2535 11.7424 23.8696 11.9734L24.5718 10.1008ZM22.2027 9.52665C21.4303 9.42192 20.668 9.36914 19.916 9.36914V11.3691C20.5742 11.3691 21.2467 11.4153 21.934 11.5085L22.2027 9.52665ZM19.916 9.36914C18.8206 9.36914 17.7783 9.54063 16.7965 9.89127L17.4691 11.7747C18.2191 11.5069 19.0323 11.3691 19.916 11.3691V9.36914ZM16.8043 9.88851C15.8343 10.2259 14.971 10.7231 14.2251 11.3828L15.5503 12.8808C16.0909 12.4026 16.7243 12.0339 17.4613 11.7775L16.8043 9.88851ZM14.2179 11.3893C13.4795 12.0553 12.8991 12.8619 12.4744 13.7962L14.2951 14.6238C14.6126 13.9252 15.0341 13.3464 15.5575 12.8744L14.2179 11.3893ZM12.4744 13.7962C12.0363 14.7601 11.8281 15.8258 11.8281 16.9746H13.8281C13.8281 16.07 13.9911 15.2927 14.2951 14.6238L12.4744 13.7962ZM11.8281 16.9746C11.8281 17.7088 11.9271 18.4261 12.1264 19.1234L14.0494 18.5739C13.9023 18.059 13.8281 17.5268 13.8281 16.9746H11.8281ZM12.1279 19.1286C12.332 19.8283 12.6421 20.4675 13.0621 21.0375L14.6722 19.8511C14.3996 19.4811 14.1902 19.0564 14.0479 18.5686L12.1279 19.1286ZM13.0801 21.0612C13.524 21.6275 14.0682 22.0864 14.7043 22.4347L15.6649 20.6805C15.2619 20.4598 14.9278 20.1765 14.6542 19.8275L13.0801 21.0612ZM14.7129 22.4394C15.4102 22.8124 16.1888 22.9844 17.0215 22.9844V20.9844C16.4687 20.9844 16.0228 20.8719 15.6562 20.6758L14.7129 22.4394ZM17.0215 22.9844C17.5799 22.9844 18.1438 22.9108 18.7113 22.769L18.2262 20.8287C17.8041 20.9342 17.4032 20.9844 17.0215 20.9844V22.9844ZM18.7057 22.7703C19.342 22.6152 19.9164 22.3429 20.4051 21.9384L19.13 20.3976C18.9013 20.5868 18.6099 20.7351 18.2318 20.8273L18.7057 22.7703ZM20.7663 21.2192L20.8405 19.7719L18.8431 19.6695L18.7689 21.1168L20.7663 21.2192ZM19.8585 18.7208L15.4053 18.6466L15.372 20.6463L19.8251 20.7206L19.8585 18.7208ZM16.3879 19.6865L16.6105 14.12L14.6121 14.0401L14.3895 19.6065L16.3879 19.6865ZM15.6449 15.0795C17.4835 15.0178 19.3221 14.9685 21.1608 14.9314L21.1205 12.9318C19.2729 12.969 17.4254 13.0186 15.5778 13.0806L15.6449 15.0795ZM21.1675 14.9313C23.0149 14.8817 24.8747 14.8197 26.7467 14.7453L26.6673 12.7469C24.8037 12.8209 22.9525 12.8826 21.1138 12.932L21.1675 14.9313ZM25.7072 13.7639L25.9298 26.2327L27.9295 26.197L27.7069 13.7282L25.7072 13.7639Z" fill="#525252"/>
</g>
<defs>
<filter id="filter0_dii_171_164" x="1.73633" y="1.53906" width="26.1934" height="30.0176" filterUnits="userSpaceOnUse" color-interpolation-filters="sRGB">
<feFlood flood-opacity="0" result="BackgroundImageFix"/>
<feColorMatrix in="SourceAlpha" type="matrix" values="0 0 0 0 0 0 0 0 0 0 0 0 0 0 0 0 0 0 127 0" result="hardAlpha"/>
<feOffset/>
<feGaussianBlur stdDeviation="0.5"/>
<feComposite in2="hardAlpha" operator="out"/>
<feColorMatrix type="matrix" values="0 0 0 0 0.44 0 0 0 0 1 0 0 0 0 0 0 0 0 1 0"/>
<feBlend mode="normal" in2="BackgroundImageFix" result="effect1_dropShadow_171_164"/>
<feBlend mode="normal" in="SourceGraphic" in2="effect1_dropShadow_171_164" result="shape"/>
<feColorMatrix in="SourceAlpha" type="matrix" values="0 0 0 0 0 0 0 0 0 0 0 0 0 0 0 0 0 0 127 0" result="hardAlpha"/>
<feOffset dx="2" dy="2"/>
<feGaussianBlur stdDeviation="0.5"/>
<feComposite in2="hardAlpha" operator="arithmetic" k2="-1" k3="1"/>
<feColorMatrix type="matrix" values="0 0 0 0 1 0 0 0 0 1 0 0 0 0 1 0 0 0 0.81 0"/>
<feBlend mode="normal" in2="shape" result="effect2_innerShadow_171_164"/>
<feColorMatrix in="SourceAlpha" type="matrix" values="0 0 0 0 0 0 0 0 0 0 0 0 0 0 0 0 0 0 127 0" result="hardAlpha"/>
<feOffset dx="-2" dy="-1"/>
<feGaussianBlur stdDeviation="1"/>
<feComposite in2="hardAlpha" operator="arithmetic" k2="-1" k3="1"/>
<feColorMatrix type="matrix" values="0 0 0 0 0 0 0 0 0 0 0 0 0 0 0 0 0 0 0.42 0"/>
<feBlend mode="normal" in2="effect2_innerShadow_171_164" result="effect3_innerShadow_171_164"/>
</filter>
</defs>
</svg>
