<svg xmlns="http://www.w3.org/2000/svg" viewBox="0 0 248 163"><g id="Layer_2" data-name="Layer 2"><g id="burger_menu" data-name="burger menu"><path d="M248,139v7c-6.11,8.18-14.34,12.93-24.21,15.11A16.77,16.77,0,0,0,220,163h-4a39.31,39.31,0,0,0-5.22-.9c-11.29-.4-22.6-.54-33.89-1.08q-48.27-2.31-96.55-4.87c-21.06-1.11-42.11-2.49-63.18-3.56-6.53-.34-12.35-2-17.16-6.59v-1c7-11.87,19.17-9.95,29.88-10.68C53.54,132.7,77.26,131.88,101,131c21.42-.84,42.85-1.35,64.28-2,18.26-.59,36.54-1.82,54.8-1.62C230.48,127.42,240.76,130.16,248,139Z"/><path d="M248,76v7c-6.92,10.3-17.71,14.76-29,16.38-9.55,1.38-19.53-.24-29.32-.64-16.93-.7-33.86-1.37-50.78-2.27-25.52-1.36-51-2.92-76.54-4.37-14.59-.83-29.17-1.73-43.77-2.34C11.59,89.47,5.13,88.21,0,83V82c6.6-11.18,18.12-9.76,28.41-10.54C48.26,70,68.16,69,88.05,68.22c31-1.21,62-2.12,93.05-3.09,13.12-.41,26.27-1.3,39.35-.75C230.74,64.81,240.82,67.41,248,76Z"/><path d="M248,13v6c-10.91,14.75-26.29,17.52-43.31,16.5-14.44-.86-28.91-1.1-43.36-1.82Q118,31.5,74.74,29.1c-19.08-1-38.16-2.24-57.25-3.14C10.75,25.64,4.75,24.05,0,19V18c4.35-7.63,12-8.95,19.61-9.86,8.23-1,16.51-1.54,24.79-1.94,21.22-1,42.45-2,63.69-2.65C141,2.53,173.87,1.8,206.76.89A35.2,35.2,0,0,0,212,0h11l8,2.32C237.66,4.26,244.22,6.42,248,13Z"/></g></g></svg>