<svg xmlns="http://www.w3.org/2000/svg" viewBox="0 0 300.44 222.3"><g id="Layer_2" data-name="Layer 2"><g id="burger_menu" data-name="burger menu"><path d="M300.38,172.41q-1.77-22.87-3.65-45.75a16.32,16.32,0,0,0-1.26-3.74,43.06,43.06,0,0,1-2-5.81c-1.5-7.49-1.79-15.44-4.61-22.38A48.1,48.1,0,0,1,286,82.19a11.56,11.56,0,0,0-.81-2.79c-2-4.9-4.17-9.73-6-14.69-1.66-4.54-2.84-9.26-4.45-13.82a46,46,0,0,0-3.49-7.54c-1.91-3.36-4-6.63-6.22-9.79a67.7,67.7,0,0,0-6.9-8.78c-1.92-2-4.89-2.89-6.81-4.85C244.58,13,235.1,11.49,226.91,7.56c-5.89-2.83-13-3-19.63-4.41-.65-.14-1.48-.07-1.93-.44C200.44-1.41,194.55.52,189.06.05a3.82,3.82,0,0,0-2.74.62c-4.35,4.61-5.39,10.6-7.27,16l21.52,5.09a13.54,13.54,0,0,1,2.42.56c4.66,2.05,9.18,4.52,14,6.17,6.38,2.19,12.74,4.2,16.8,10.11a16.57,16.57,0,0,1,2.29,4.39c1.5,4.89-2.09,8.52-5.11,10.1s-7.8.71-11.72.23c-1.69-.2-3.1-2.21-4.76-3.17A39.55,39.55,0,0,0,209.73,48c-3.92-1.64-7.78-3.41-11.77-4.83a73.77,73.77,0,0,0-10.5-3c-7.67-1.54-15.37-3-23.11-4.1-3.93-.54-8,.15-12-.3-13.05-1.49-25.45,2.68-38.14,4.2-4.23.5-8.33,2.08-12.48,3.19a8.17,8.17,0,0,0-1.29.57c-4.41,2-8.84,4.08-13.24,6.18-2.43,1.16-4.72,3.24-7.22,3.51-4.7.5-9.81,2.15-13.46-3.52-1.79-2.79-3-8.16-.92-10.87,3.7-5,9.27-7.22,14.37-9.87A103.39,103.39,0,0,1,98.3,22.09c6.32-1.86,12.89-2.86,19.36-4.22,1.1-.23,2.22-.38,4-.68-1.48-4.62-2.85-8.91-4.26-13.19-.08-.25-.56-.33-.8-.56C113,0,102.91-.84,97.92,1,91.35,3.41,84.48,5,77.74,7L62.27,11.44a1.81,1.81,0,0,0-.44.22C58.36,13.74,54.55,15.41,51.5,18c-4.17,3.52-10.37,4.46-12.73,10.34-1,2.52-2.94,4.67-4.35,7a107.19,107.19,0,0,0-5.74,10.15C27,49.2,26,53.21,24.49,57c-1.86,4.48-4.5,8.7-5.94,13.3C16.6,76.49,15.47,83,14,89.35a13.84,13.84,0,0,1-.36,2c-2,5.34-4.66,10.53-5.91,16C6.34,113.48,6.15,119.69,4.24,126c-2.89,9.56-2.92,20-3.89,30.1a129.11,129.11,0,0,0-.23,13.49c.05,4.83-1.17,10,3.26,13.84,1.42,1.24,2.4,3,3.72,4.34,3,3.11,5.81,6.46,9.2,9.08a103.13,103.13,0,0,0,12.22,7.66c6,3.42,11.82,7.26,18.18,9.75,5.81,2.27,12.24,2.92,18.37,4.39,1.39.33,2.66,1.47,4,1.58,6.05.51,12.11.82,18.18,1.05.52,0,1.13-1,1.61-1.61,2.41-3,5-5.95,7.13-9.13,1.82-2.67,3.2-5.65,4.91-8.76-6.92-1.91-12.59-3.47-18.24-5.05a12.88,12.88,0,0,1-2.32-.92c-3.71-1.9-7.28-4.14-11.13-5.7-4.82-2-9.41-3.85-12.83-8.16-4.15-5.24-4-9.18,1.46-15.39,2.4-2.71,9.45-2.33,13.15.4a38,38,0,0,0,8,4.71c4.14,1.71,9.38,1.83,12.58,4.5,5.07,4.24,12,1.41,16.61,5.79,12.36,0,24.11,4.21,36.63,4.39,16,.22,31.44-2.87,47.14-4.37a10.3,10.3,0,0,0,2.4-.65c5.65-2,11.38-3.75,16.9-6a170.26,170.26,0,0,0,18.27-8.63c3.47-2,10.56-2.74,12.92-.28,5.54,5.76,6.2,10.69,1.65,15.35-2.69,2.76-5.54,5.62-8.87,7.41A125.28,125.28,0,0,1,218,196.6c-5.53,2-11.32,3.19-18.55,5.17,1.38,2.18,2.44,3.94,3.59,5.64,1.43,2.13,2.95,4.2,4.41,6.3,3.55,5.15,7.07,10.21,14.7,8.09,4.69-1.3,9.47-2.28,14.21-3.39,6-1.41,12-2.8,17.92-4.23a9.6,9.6,0,0,0,1.8-.87c3.72-1.84,7.47-3.63,11.17-5.52s7.58-3.26,10.6-5.82c5.72-4.85,10.48-10.9,16.38-15.49C299.13,182.64,300.82,178.18,300.38,172.41ZM128.27,132c-1.92,7.27-4,14.7-12,19.12-4.31,2.37-8.33,3.46-12.24,2.39a23.49,23.49,0,0,1-10.72-6.78c-4.87-5.48-8-12.1-7.23-20.17-1.35-8.36,4.38-14.53,8-21.33,1.94-3.61,15.35-6.89,18.7-4.63,5.41,3.65,10.49,7.29,13.23,14.35C128.27,120.77,129.71,126.51,128.27,132Zm77.78,16.69c-4.35,4.74-11.75,7.66-18.24,4.65-5.77-2.68-10.9-6.74-13.28-14a51.46,51.46,0,0,1-2.79-13.58c-.41-8.18,3.93-15,8.58-20.29,3.93-4.45,11.46-7.89,18-4.74,5.77,2.77,11.67,6.49,13.2,14,.84,4.15,2.63,8.11,4,12.15C215.24,135.73,211.24,143,206.05,148.64Z"/></g></g></svg>