<svg width="31" height="31" viewBox="0 0 31 31" fill="none" xmlns="http://www.w3.org/2000/svg">
<g filter="url(#filter0_dii_171_164)">
<path d="M26.9297 25.2148C26.3483 25.9447 25.6309 26.5817 24.7773 27.126C23.9238 27.6702 23.0085 28.1217 22.0312 28.4805C21.054 28.8392 20.0521 29.1051 19.0254 29.2783C17.9987 29.4639 17.0215 29.5566 16.0938 29.5566C14.3001 29.5566 12.6488 29.235 11.1396 28.5918C9.63053 27.9486 8.32552 27.0641 7.22461 25.9385C6.13607 24.8005 5.28255 23.4645 4.66406 21.9307C4.04557 20.3968 3.73633 18.7454 3.73633 16.9766C3.73633 15.6283 3.89095 14.3109 4.2002 13.0244C4.50944 11.7256 4.94857 10.5072 5.51758 9.36914C6.09896 8.21875 6.80404 7.16732 7.63281 6.21484C8.46159 5.25 9.40169 4.42122 10.4531 3.72852C11.5046 3.03581 12.6549 2.49772 13.9043 2.11426C15.1536 1.73079 16.4896 1.53906 17.9121 1.53906C18.444 1.53906 19.013 1.5638 19.6191 1.61328C20.2253 1.65039 20.8252 1.72461 21.4189 1.83594C22.0251 1.9349 22.6126 2.07715 23.1816 2.2627C23.7507 2.44824 24.2702 2.67708 24.7402 2.94922L24.2207 10.0371C23.528 9.77734 22.8105 9.60417 22.0684 9.51758C21.3385 9.41862 20.6211 9.36914 19.916 9.36914C18.9264 9.36914 17.9987 9.52376 17.1328 9.83301C16.2793 10.1299 15.5309 10.5628 14.8877 11.1318C14.2568 11.7008 13.7559 12.3936 13.3848 13.21C13.0137 14.0264 12.8281 14.9479 12.8281 15.9746C12.8281 16.6178 12.9147 17.2425 13.0879 17.8486C13.2611 18.4424 13.5208 18.9743 13.8672 19.4443C14.2259 19.902 14.665 20.2731 15.1846 20.5576C15.7165 20.8421 16.3288 20.9844 17.0215 20.9844C17.4915 20.9844 17.974 20.9225 18.4688 20.7988C18.9759 20.6751 19.4089 20.4648 19.7676 20.168L19.8418 18.7207L15.3887 18.6465L15.6113 13.0801C17.4544 13.0182 19.2975 12.9688 21.1406 12.9316C22.9837 12.8822 24.8392 12.8203 26.707 12.7461L26.9297 25.2148Z" fill="#7FFF00"/>
</g>
<defs>
<filter id="filter0_dii_171_164" x="1.73633" y="0.539062" width="26.1934" height="30.0176" filterUnits="userSpaceOnUse" color-interpolation-filters="sRGB">
<feFlood flood-opacity="0" result="BackgroundImageFix"/>
<feColorMatrix in="SourceAlpha" type="matrix" values="0 0 0 0 0 0 0 0 0 0 0 0 0 0 0 0 0 0 127 0" result="hardAlpha"/>
<feOffset/>
<feGaussianBlur stdDeviation="0.5"/>
<feComposite in2="hardAlpha" operator="out"/>
<feColorMatrix type="matrix" values="0 0 0 0 0.44 0 0 0 0 1 0 0 0 0 0 0 0 0 1 0"/>
<feBlend mode="normal" in2="BackgroundImageFix" result="effect1_dropShadow_171_164"/>
<feBlend mode="normal" in="SourceGraphic" in2="effect1_dropShadow_171_164" result="shape"/>
<feColorMatrix in="SourceAlpha" type="matrix" values="0 0 0 0 0 0 0 0 0 0 0 0 0 0 0 0 0 0 127 0" result="hardAlpha"/>
<feOffset dx="2" dy="2"/>
<feGaussianBlur stdDeviation="0.5"/>
<feComposite in2="hardAlpha" operator="arithmetic" k2="-1" k3="1"/>
<feColorMatrix type="matrix" values="0 0 0 0 1 0 0 0 0 1 0 0 0 0 1 0 0 0 0.81 0"/>
<feBlend mode="normal" in2="shape" result="effect2_innerShadow_171_164"/>
<feColorMatrix in="SourceAlpha" type="matrix" values="0 0 0 0 0 0 0 0 0 0 0 0 0 0 0 0 0 0 127 0" result="hardAlpha"/>
<feOffset dx="-2" dy="-1"/>
<feGaussianBlur stdDeviation="1"/>
<feComposite in2="hardAlpha" operator="arithmetic" k2="-1" k3="1"/>
<feColorMatrix type="matrix" values="0 0 0 0 0 0 0 0 0 0 0 0 0 0 0 0 0 0 0.42 0"/>
<feBlend mode="normal" in2="effect2_innerShadow_171_164" result="effect3_innerShadow_171_164"/>
</filter>
</defs>
</svg>
