<svg xmlns="http://www.w3.org/2000/svg" viewBox="0 0 351.42 350.54"><g id="Layer_2" data-name="Layer 2"><g id="burger_menu" data-name="burger menu"><path d="M350.75,175.24c0-15.43.21-30.87-.05-46.3-.3-17.2-.13-34.47-3.83-51.4-7.69-35.16-28-59.29-62.5-70.89-15.58-5.25-31.8-6.37-48-6.47Q175-.19,113.72.18c-13,.07-26.11.89-38.88,4C40.77,12.58,17.62,32.93,6.51,66.48,1.53,81.5.28,97.1.18,112.72q-.39,62.47,0,125c.06,12.74,1,25.5,4,38,8.23,33.6,28.25,56.57,61.2,67.9,15.46,5.31,31.56,6.54,47.69,6.68q57.3.51,114.61.24c16-.06,32.06-.53,47.79-4.22,27.14-6.36,48.12-21.13,61.57-45.78,8.81-16.12,12.2-33.76,12.76-51.93.74-24.42,1.09-48.86,1.61-73.28Zm-32.4,68.17c-.21,10.21-1.27,20.34-4.33,30.15-7.08,22.69-22.6,36.27-45.51,41.77-12.13,2.9-24.53,3.34-36.87,3.36-42.07.06-84.13-.05-126.18-.62a112.33,112.33,0,0,1-27.2-3.94c-23.59-6.31-37.59-22.24-43.2-45.78-3.08-12.9-3.35-26.1-3.44-39.23q-.36-54.17,0-108.34c.09-12.73.37-25.52,3.29-38.06,6.39-27.48,24.91-45.23,53-48.61,17-2,34.33-2.43,51.52-2.64q43.65-.54,87.3.19c12.82.21,25.78.85,38.4,3,28.89,4.84,47.88,24.57,51.25,53.7,2,17.34,2.05,34.91,2.65,52.4.36,10.57.06,21.17.06,31.75h.42C319.17,196.13,318.84,219.77,318.35,243.41Z"/><path d="M175.38,85A90.29,90.29,0,0,0,85,175.07c0,49.7,40.3,90.3,89.83,90.37,50.12.08,90.67-40.21,90.7-90.09A90.27,90.27,0,0,0,175.38,85Zm0,148.78a58.55,58.55,0,1,1,58.42-58.67A58.63,58.63,0,0,1,175.37,233.76Z"/><path d="M290.12,81.56a21.13,21.13,0,1,1-21-21.17A21.11,21.11,0,0,1,290.12,81.56Z"/><circle cx="175.42" cy="174.68" r="43"/></g></g></svg>