<?xml version="1.0" encoding="utf-8"?>
<!-- Generator: Adobe Illustrator 26.0.1, SVG Export Plug-In . SVG Version: 6.00 Build 0)  -->
<svg version="1.1" id="Layer_1" xmlns="http://www.w3.org/2000/svg" xmlns:xlink="http://www.w3.org/1999/xlink" x="0px" y="0px"
	 viewBox="0 0 256 256" style="enable-background:new 0 0 256 256;" xml:space="preserve">
<g>
	<path d="M244.21,94.94c-8.79-29.92-26.51-53.18-52.89-69.77c-15.43-9.7-32.3-15.42-50.44-17.35c-2.49-0.26-4.98-0.47-7.47-0.71
		h-10.85c-2.49,0.24-4.98,0.45-7.47,0.71c-15.92,1.69-30.94,6.32-44.91,14.12c-26.25,14.64-44.8,36.02-55.51,64.11
		c-4.29,11.25-6.68,22.92-7.34,34.94c-0.03,0.53-0.15,1.05-0.22,1.57v10.85c0.07,0.48,0.16,0.96,0.21,1.45
		c0.53,4.65,0.81,9.34,1.62,13.94c4.17,23.42,14.31,43.95,30.58,61.3c21.6,23.04,48.25,35.92,79.75,38.42
		c17.92,1.43,35.3-1.28,52.09-7.75c40.81-15.72,70.3-52.83,76.32-96.04C250.02,127.88,249,111.25,244.21,94.94z M127.66,240.73
		C65.8,240.66,15.19,189.87,15.24,127.91C15.29,65.62,66.09,15.12,128.56,15.24c61.68,0.12,112.23,50.96,112.17,112.82
		C240.68,190.26,189.95,240.8,127.66,240.73z"/>
	<path d="M188.73,180.61c0.02,3.19-1.64,5.62-4.24,7.39c-3.41,2.33-7.33,3.24-11.32,3.88c-8.97,1.43-18.02,1.33-27.06,1.41
		c-6.21,0.05-12.41,0.01-18.62,0.01c0,0-20.88-0.11-31.32-0.23c-6.04-0.07-12.07-0.49-17.97-1.96c-2.72-0.67-5.35-1.6-7.62-3.34
		c-2.39-1.83-3.66-4.24-3.8-7.27c-0.59-12.61,2.88-23.91,11.27-33.45c9.1-10.34,20.65-15.84,34.43-16.13
		c10.81-0.22,21.63-0.3,32.43,0.08c21.3,0.75,40.02,17.61,43.24,38.68C188.7,173.28,188.71,176.97,188.73,180.61z"/>
	<circle cx="127" cy="91" r="37"/>
</g>
</svg>
