<?xml version="1.0" encoding="utf-8"?>
<!-- Generator: Adobe Illustrator 24.1.1, SVG Export Plug-In . SVG Version: 6.00 Build 0)  -->
<svg version="1.1" id="Layer_1" xmlns="http://www.w3.org/2000/svg" xmlns:xlink="http://www.w3.org/1999/xlink" x="0px" y="0px"
	 viewBox="0 0 1920 1080" style="enable-background:new 0 0 1920 1080;" xml:space="preserve">
<style type="text/css">
	.st0{display:none;}
	.st1{display:inline;fill:#80FF00;}
	.st2{fill:#00630A;}
	.st3{fill:none;}
	.st4{fill:#80FF00;}
	.st5{fill:#333333;}
</style>
<g id="LOGO">
	<g>
		<g class="st0">
			<path class="st1" d="M222,599.3c-1.2-0.3-2.4-0.7-3.6-1.2C219.5,598.6,220.7,599,222,599.3z"/>
			<path class="st1" d="M252.8,594.7c-0.7,0.5-1.3,0.9-2,1.3C251.5,595.6,252.1,595.2,252.8,594.7z"/>
			<polygon class="st1" points="327.1,643.6 326.8,629.3 326.8,629.3 			"/>
			<path class="st1" d="M543.6,506.6c0-0.1-0.1-0.3-0.1-0.4c0.2,0.4,0.3,0.9,0.4,1.3C543.8,507.2,543.7,506.9,543.6,506.6z
				 M537.5,600.5c0.8-1.6,1.5-3.2,2.2-4.8C539,597.3,538.3,598.9,537.5,600.5z"/>
			<path class="st1" d="M778.6,536.8L778.6,536.8C778.6,536.8,778.6,536.8,778.6,536.8C778.6,536.8,778.6,536.8,778.6,536.8z
				 M778.4,534.3c0.1,0.8,0.1,1.7,0.2,2.5h0c0,0,0,0,0,0C778.5,536,778.5,535.1,778.4,534.3z M775.7,516.5c0-0.2-0.1-0.4-0.1-0.6v0
				c0-0.2-0.1-0.3-0.1-0.5c0.1,0.2,0.1,0.3,0.1,0.5v0C775.6,516.1,775.7,516.3,775.7,516.5z M770.2,498.5c-0.1-0.3-0.3-0.6-0.4-0.9
				C769.9,497.9,770,498.2,770.2,498.5c0.1,0.2,0.2,0.5,0.3,0.8C770.4,499,770.3,498.8,770.2,498.5z M760.5,612.9l-0.2,0.3
				L760.5,612.9c0.1-0.2,0.2-0.3,0.3-0.5C760.7,612.6,760.6,612.8,760.5,612.9z M761.5,611.2c0,0-0.1,0.1-0.1,0.2
				C761.4,611.3,761.5,611.3,761.5,611.2c0.2-0.3,0.3-0.6,0.5-0.8C761.8,610.7,761.7,610.9,761.5,611.2z M756.4,619.1
				C756.4,619.1,756.4,619.1,756.4,619.1C756.4,619.1,756.4,619.1,756.4,619.1c0.1-0.2,0.3-0.3,0.4-0.5
				C756.6,618.7,756.5,618.9,756.4,619.1z M743.2,459.8c1.3,1.2,2.6,2.4,3.9,3.6v0C745.9,462.2,744.6,461,743.2,459.8z M739.2,456.4
				c1.4,1.1,2.8,2.3,4.1,3.4C741.9,458.6,740.5,457.5,739.2,456.4z M636.6,562.9c-0.3-1-0.6-2.1-0.8-3.1
				C636,560.8,636.3,561.8,636.6,562.9c0.5,1.7,1,3.3,1.7,4.8C637.6,566.1,637,564.5,636.6,562.9z M558.4,589.6c0,0,0-0.1,0-0.1
				C558.4,589.5,558.4,589.5,558.4,589.6c0.2,0.5,0.3,0.9,0.5,1.4C558.7,590.5,558.6,590,558.4,589.6z M552.3,541.6
				c0.1-1.6,0.3-3.2,0.5-4.8C552.6,538.4,552.4,540,552.3,541.6z"/>
			<path class="st1" d="M776.3,573c0,0.1,0,0.3-0.1,0.4c-0.1,0.6-0.1,1.7-0.2,2.3c0-0.4,0-0.8-0.1-1.2c0,0,0,0,0,0v-0.1
				C776.1,574,776.2,573.5,776.3,573z"/>
			<path class="st1" d="M777.7,589.7c0-0.2-0.1-0.4-0.1-0.6c-0.1-0.5-0.2-1-0.3-1.6c0.1,0.5,0.2,1.1,0.3,1.6
				C777.6,589.4,777.6,589.5,777.7,589.7z"/>
			<path class="st1" d="M778.6,594.6c0-0.1,0-0.1,0-0.2c0-0.1,0-0.2,0-0.3c0,0.1,0,0.2,0.1,0.3C778.6,594.5,778.6,594.6,778.6,594.6
				z"/>
			<path class="st1" d="M784.3,613.5c0-0.1-0.1-0.2-0.1-0.3c0,0,0,0,0,0c0,0,0,0,0,0C784.2,613.3,784.2,613.4,784.3,613.5z"/>
			<path class="st1" d="M785.4,616.4c-0.3-0.6-0.5-1.2-0.8-1.8c0-0.1-0.1-0.2-0.1-0.3c0,0.1,0.1,0.2,0.1,0.3
				C784.9,615.2,785.2,615.8,785.4,616.4z"/>
			<path class="st1" d="M796.9,637.6c-1.6-2.4-3.1-4.8-4.6-7.3C793.8,632.8,795.3,635.3,796.9,637.6z"/>
			<path class="st1" d="M800.2,642.3c-1.2-1.5-2.3-3.1-3.3-4.6C798,639.2,799.1,640.8,800.2,642.3z"/>
			<path class="st1" d="M928,684.3c-1.8,0.4-3.6,0.7-5.5,1c-0.6,0.1-1.2,0.2-1.8,0.3c0.6-0.1,1.2-0.2,1.8-0.3
				C924.4,685.1,926.2,684.7,928,684.3z"/>
			<path class="st1" d="M976.3,665.5L976.3,665.5c-0.5,0.3-1,0.6-1.5,0.9C975.3,666.1,975.8,665.8,976.3,665.5z"/>
			<path class="st1" d="M980.4,658c-0.1,0-0.1,0.1-0.2,0.1v0C980.3,658.1,980.3,658,980.4,658z"/>
			<path class="st1" d="M983.7,660c-0.3,0.5-0.6,0.9-1,1.2C982.8,661,983.2,660.5,983.7,660z"/>
			<path class="st1" d="M793.3,493.5c-0.2,0.3-0.3,0.6-0.5,0.9c-0.1,0.2-0.2,0.4-0.3,0.6c0.1-0.2,0.2-0.4,0.3-0.6
				C793,494.1,793.2,493.8,793.3,493.5z"/>
			<path class="st1" d="M874.2,531c-0.4,0.9-0.9,1.7-1.3,2.6c-0.4,0.9-0.8,1.8-1.1,2.7c0.3-0.9,0.7-1.8,1.1-2.7
				C873.3,532.8,873.8,531.9,874.2,531z"/>
			<path class="st1" d="M984.6,525.3c-0.3,0.1-0.5,0.2-0.8,0.3v-0.1C984,525.4,984.3,525.3,984.6,525.3z"/>
			<path class="st1" d="M986,524.9c-0.5,0.1-1,0.2-1.5,0.3c0.4-0.2,0.8-0.3,1.2-0.5C985.8,524.8,985.9,524.9,986,524.9z"/>
			<path class="st1" d="M1229.3,503.7c0.2-0.5,0.4-1,0.6-1.5C1229.8,502.7,1229.6,503.2,1229.3,503.7z M1430,610.5
				c-0.1,0.1-0.1,0.3-0.2,0.4C1429.8,610.8,1429.9,610.7,1430,610.5c0.3-0.4,0.5-0.9,0.8-1.3C1430.5,609.6,1430.2,610.1,1430,610.5z
				"/>
			<path class="st1" d="M1552.3,439c-0.1,0.9-0.2,1.9-0.2,2.9l-1.3-2.7L1552.3,439z"/>
			<polygon class="st1" points="1671.7,472.3 1671.1,470.7 1663.1,438 			"/>
			<path class="st1" d="M1757.7,442.2C1757.7,442.2,1757.7,442.2,1757.7,442.2L1757.7,442.2L1757.7,442.2
				C1757.7,442.2,1757.7,442.2,1757.7,442.2z"/>
		</g>
		<g>
			<path class="st2" d="M326.8,629.3L326.8,629.3l0.3,14.3L326.8,629.3z M326.4,645.8c0,0.1-0.1,0.1-0.1,0.2
				C326.3,646,326.4,645.9,326.4,645.8C326.5,645.8,326.5,645.8,326.4,645.8z M244.3,598.6c0.2,0,0.5-0.1,0.7-0.2
				c0.5-0.1,0.9-0.3,1.3-0.4c0.4-0.1,0.8-0.3,1.2-0.4c0.4-0.2,0.8-0.3,1.2-0.5c0.8-0.3,1.5-0.7,2.1-1.1c0.7-0.4,1.4-0.8,2-1.3
				l0.1-2.2C250.3,595.4,247,597.8,244.3,598.6z M218.4,598.1c1.1,0.5,2.3,0.9,3.6,1.2C220.7,599,219.5,598.6,218.4,598.1z"/>
			<path class="st2" d="M558,512.9c-0.1,0.4-0.3,0.8-0.4,1.2c0,0,0,0,0,0c0,0,0,0,0,0C557.7,513.6,557.8,513.3,558,512.9
				c0,0,0-0.1,0-0.1C558,512.8,558,512.8,558,512.9z M561.7,502.8c-0.1,0.2-0.1,0.4-0.2,0.5C561.5,503.1,561.6,503,561.7,502.8
				c0.1-0.2,0.2-0.4,0.2-0.6C561.9,502.4,561.8,502.6,561.7,502.8z M565.5,494.7c-0.3,0.5-0.5,1-0.7,1.4
				C565,495.6,565.2,495.1,565.5,494.7c0.2-0.3,0.3-0.6,0.5-1C565.8,494,565.6,494.3,565.5,494.7z M561.3,597l-0.3-0.6
				c-0.2-0.4-0.3-0.8-0.5-1.2c0-0.1-0.1-0.1-0.1-0.2c0,0.1,0,0.1,0.1,0.2c0.2,0.4,0.3,0.8,0.5,1.2L561.3,597c0,0.1,0.1,0.3,0.2,0.4
				C561.4,597.3,561.3,597.2,561.3,597z M558.4,589.6c0,0,0-0.1,0-0.1C558.4,589.5,558.4,589.5,558.4,589.6c0.2,0.5,0.3,0.9,0.5,1.4
				C558.7,590.5,558.6,590,558.4,589.6z M552.3,541.6c0.1-1.6,0.3-3.2,0.5-4.8C552.6,538.4,552.4,540,552.3,541.6z M543.6,506.6
				c0-0.1-0.1-0.3-0.1-0.4c0.2,0.4,0.3,0.9,0.4,1.3C543.8,507.2,543.7,506.9,543.6,506.6z M537.5,600.5c0.8-1.6,1.5-3.2,2.2-4.8
				C539,597.3,538.3,598.9,537.5,600.5z"/>
			<path class="st2" d="M636.6,562.9c-0.3-1-0.6-2.1-0.8-3.1C636,560.8,636.3,561.8,636.6,562.9c0.5,1.7,1,3.3,1.7,4.8
				C637.6,566.1,637,564.5,636.6,562.9z M642.2,574.8c-0.3-0.4-0.6-0.9-0.9-1.3C641.6,573.9,641.9,574.4,642.2,574.8
				c0.3,0.4,0.6,0.8,0.9,1.3C642.8,575.6,642.5,575.2,642.2,574.8z M658,516.9c0.8-0.2,1.6-0.3,2.4-0.5
				C659.6,516.6,658.7,516.7,658,516.9z M692.5,537.9c-0.5-1.6-1-3.1-1.7-4.5C691.4,534.8,692,536.3,692.5,537.9
				c0.2,0.5,0.3,1.1,0.5,1.6C692.8,539,692.7,538.4,692.5,537.9z M692.3,564.6c-0.4,1.1-0.8,2.1-1.2,3.1
				C691.5,566.7,691.9,565.6,692.3,564.6c0.4-1.1,0.7-2.2,1-3.3C693,562.4,692.6,563.5,692.3,564.6z M636.6,562.9
				c-0.3-1-0.6-2.1-0.8-3.1C636,560.8,636.3,561.8,636.6,562.9c0.5,1.7,1,3.3,1.7,4.8C637.6,566.1,637,564.5,636.6,562.9z
				 M642.2,574.8c-0.3-0.4-0.6-0.9-0.9-1.3C641.6,573.9,641.9,574.4,642.2,574.8c0.3,0.4,0.6,0.8,0.9,1.3
				C642.8,575.6,642.5,575.2,642.2,574.8z M658,516.9c0.8-0.2,1.6-0.3,2.4-0.5C659.6,516.6,658.7,516.7,658,516.9z M692.5,537.9
				c-0.5-1.6-1-3.1-1.7-4.5C691.4,534.8,692,536.3,692.5,537.9c0.2,0.5,0.3,1.1,0.5,1.6C692.8,539,692.7,538.4,692.5,537.9z
				 M692.3,564.6c-0.4,1.1-0.8,2.1-1.2,3.1C691.5,566.7,691.9,565.6,692.3,564.6c0.4-1.1,0.7-2.2,1-3.3
				C693,562.4,692.6,563.5,692.3,564.6z M636.6,562.9c-0.3-1-0.6-2.1-0.8-3.1C636,560.8,636.3,561.8,636.6,562.9
				c0.5,1.7,1,3.3,1.7,4.8C637.6,566.1,637,564.5,636.6,562.9z M642.2,574.8c-0.3-0.4-0.6-0.9-0.9-1.3
				C641.6,573.9,641.9,574.4,642.2,574.8c0.3,0.4,0.6,0.8,0.9,1.3C642.8,575.6,642.5,575.2,642.2,574.8z M658,516.9
				c0.8-0.2,1.6-0.3,2.4-0.5C659.6,516.6,658.7,516.7,658,516.9z M692.5,537.9c-0.5-1.6-1-3.1-1.7-4.5
				C691.4,534.8,692,536.3,692.5,537.9c0.2,0.5,0.3,1.1,0.5,1.6C692.8,539,692.7,538.4,692.5,537.9z M692.3,564.6
				c-0.4,1.1-0.8,2.1-1.2,3.1C691.5,566.7,691.9,565.6,692.3,564.6c0.4-1.1,0.7-2.2,1-3.3C693,562.4,692.6,563.5,692.3,564.6z
				 M636.6,562.9c-0.3-1-0.6-2.1-0.8-3.1C636,560.8,636.3,561.8,636.6,562.9c0.5,1.7,1,3.3,1.7,4.8
				C637.6,566.1,637,564.5,636.6,562.9z M642.2,574.8c-0.3-0.4-0.6-0.9-0.9-1.3C641.6,573.9,641.9,574.4,642.2,574.8
				c0.3,0.4,0.6,0.8,0.9,1.3C642.8,575.6,642.5,575.2,642.2,574.8z M658,516.9c0.8-0.2,1.6-0.3,2.4-0.5
				C659.6,516.6,658.7,516.7,658,516.9z M692.5,537.9c-0.5-1.6-1-3.1-1.7-4.5C691.4,534.8,692,536.3,692.5,537.9
				c0.2,0.5,0.3,1.1,0.5,1.6C692.8,539,692.7,538.4,692.5,537.9z M692.3,564.6c-0.4,1.1-0.8,2.1-1.2,3.1
				C691.5,566.7,691.9,565.6,692.3,564.6c0.4-1.1,0.7-2.2,1-3.3C693,562.4,692.6,563.5,692.3,564.6z M636.6,562.9
				c-0.3-1-0.6-2.1-0.8-3.1C636,560.8,636.3,561.8,636.6,562.9c0.5,1.7,1,3.3,1.7,4.8C637.6,566.1,637,564.5,636.6,562.9z
				 M642.2,574.8c-0.3-0.4-0.6-0.9-0.9-1.3C641.6,573.9,641.9,574.4,642.2,574.8c0.3,0.4,0.6,0.8,0.9,1.3
				C642.8,575.6,642.5,575.2,642.2,574.8z M658,516.9c0.8-0.2,1.6-0.3,2.4-0.5C659.6,516.6,658.7,516.7,658,516.9z M692.5,537.9
				c-0.5-1.6-1-3.1-1.7-4.5C691.4,534.8,692,536.3,692.5,537.9c0.2,0.5,0.3,1.1,0.5,1.6C692.8,539,692.7,538.4,692.5,537.9z
				 M692.3,564.6c-0.4,1.1-0.8,2.1-1.2,3.1C691.5,566.7,691.9,565.6,692.3,564.6c0.4-1.1,0.7-2.2,1-3.3
				C693,562.4,692.6,563.5,692.3,564.6z M636.6,562.9c-0.3-1-0.6-2.1-0.8-3.1C636,560.8,636.3,561.8,636.6,562.9
				c0.5,1.7,1,3.3,1.7,4.8C637.6,566.1,637,564.5,636.6,562.9z M642.2,574.8c-0.3-0.4-0.6-0.9-0.9-1.3
				C641.6,573.9,641.9,574.4,642.2,574.8c0.3,0.4,0.6,0.8,0.9,1.3C642.8,575.6,642.5,575.2,642.2,574.8z M658,516.9
				c0.8-0.2,1.6-0.3,2.4-0.5C659.6,516.6,658.7,516.7,658,516.9z M692.5,537.9c-0.5-1.6-1-3.1-1.7-4.5
				C691.4,534.8,692,536.3,692.5,537.9c0.2,0.5,0.3,1.1,0.5,1.6C692.8,539,692.7,538.4,692.5,537.9z M692.3,564.6
				c-0.4,1.1-0.8,2.1-1.2,3.1C691.5,566.7,691.9,565.6,692.3,564.6c0.4-1.1,0.7-2.2,1-3.3C693,562.4,692.6,563.5,692.3,564.6z
				 M636.6,562.9c-0.3-1-0.6-2.1-0.8-3.1C636,560.8,636.3,561.8,636.6,562.9c0.5,1.7,1,3.3,1.7,4.8
				C637.6,566.1,637,564.5,636.6,562.9z M642.2,574.8c-0.3-0.4-0.6-0.9-0.9-1.3C641.6,573.9,641.9,574.4,642.2,574.8
				c0.3,0.4,0.6,0.8,0.9,1.3C642.8,575.6,642.5,575.2,642.2,574.8z M658,516.9c0.8-0.2,1.6-0.3,2.4-0.5
				C659.6,516.6,658.7,516.7,658,516.9z M692.5,537.9c-0.5-1.6-1-3.1-1.7-4.5C691.4,534.8,692,536.3,692.5,537.9
				c0.2,0.5,0.3,1.1,0.5,1.6C692.8,539,692.7,538.4,692.5,537.9z M692.3,564.6c-0.4,1.1-0.8,2.1-1.2,3.1
				C691.5,566.7,691.9,565.6,692.3,564.6c0.4-1.1,0.7-2.2,1-3.3C693,562.4,692.6,563.5,692.3,564.6z M636.6,562.9
				c-0.3-1-0.6-2.1-0.8-3.1C636,560.8,636.3,561.8,636.6,562.9c0.5,1.7,1,3.3,1.7,4.8C637.6,566.1,637,564.5,636.6,562.9z
				 M642.2,574.8c-0.3-0.4-0.6-0.9-0.9-1.3C641.6,573.9,641.9,574.4,642.2,574.8c0.3,0.4,0.6,0.8,0.9,1.3
				C642.8,575.6,642.5,575.2,642.2,574.8z M658,516.9c0.8-0.2,1.6-0.3,2.4-0.5C659.6,516.6,658.7,516.7,658,516.9z M692.5,537.9
				c-0.5-1.6-1-3.1-1.7-4.5C691.4,534.8,692,536.3,692.5,537.9c0.2,0.5,0.3,1.1,0.5,1.6C692.8,539,692.7,538.4,692.5,537.9z
				 M692.3,564.6c-0.4,1.1-0.8,2.1-1.2,3.1C691.5,566.7,691.9,565.6,692.3,564.6c0.4-1.1,0.7-2.2,1-3.3
				C693,562.4,692.6,563.5,692.3,564.6z M636.6,562.9c-0.3-1-0.6-2.1-0.8-3.1C636,560.8,636.3,561.8,636.6,562.9
				c0.5,1.7,1,3.3,1.7,4.8C637.6,566.1,637,564.5,636.6,562.9z M642.2,574.8c-0.3-0.4-0.6-0.9-0.9-1.3
				C641.6,573.9,641.9,574.4,642.2,574.8c0.3,0.4,0.6,0.8,0.9,1.3C642.8,575.6,642.5,575.2,642.2,574.8z M658,516.9
				c0.8-0.2,1.6-0.3,2.4-0.5C659.6,516.6,658.7,516.7,658,516.9z M692.5,537.9c-0.5-1.6-1-3.1-1.7-4.5
				C691.4,534.8,692,536.3,692.5,537.9c0.2,0.5,0.3,1.1,0.5,1.6C692.8,539,692.7,538.4,692.5,537.9z M692.3,564.6
				c-0.4,1.1-0.8,2.1-1.2,3.1C691.5,566.7,691.9,565.6,692.3,564.6c0.4-1.1,0.7-2.2,1-3.3C693,562.4,692.6,563.5,692.3,564.6z
				 M636.6,562.9c-0.3-1-0.6-2.1-0.8-3.1C636,560.8,636.3,561.8,636.6,562.9c0.5,1.7,1,3.3,1.7,4.8
				C637.6,566.1,637,564.5,636.6,562.9z M642.2,574.8c-0.3-0.4-0.6-0.9-0.9-1.3C641.6,573.9,641.9,574.4,642.2,574.8
				c0.3,0.4,0.6,0.8,0.9,1.3C642.8,575.6,642.5,575.2,642.2,574.8z M658,516.9c0.8-0.2,1.6-0.3,2.4-0.5
				C659.6,516.6,658.7,516.7,658,516.9z M692.5,537.9c-0.5-1.6-1-3.1-1.7-4.5C691.4,534.8,692,536.3,692.5,537.9
				c0.2,0.5,0.3,1.1,0.5,1.6C692.8,539,692.7,538.4,692.5,537.9z M692.3,564.6c-0.4,1.1-0.8,2.1-1.2,3.1
				C691.5,566.7,691.9,565.6,692.3,564.6c0.4-1.1,0.7-2.2,1-3.3C693,562.4,692.6,563.5,692.3,564.6z M636.6,562.9
				c-0.3-1-0.6-2.1-0.8-3.1C636,560.8,636.3,561.8,636.6,562.9c0.5,1.7,1,3.3,1.7,4.8C637.6,566.1,637,564.5,636.6,562.9z
				 M642.2,574.8c-0.3-0.4-0.6-0.9-0.9-1.3C641.6,573.9,641.9,574.4,642.2,574.8c0.3,0.4,0.6,0.8,0.9,1.3
				C642.8,575.6,642.5,575.2,642.2,574.8z M658,516.9c0.8-0.2,1.6-0.3,2.4-0.5C659.6,516.6,658.7,516.7,658,516.9z M692.5,537.9
				c-0.5-1.6-1-3.1-1.7-4.5C691.4,534.8,692,536.3,692.5,537.9c0.2,0.5,0.3,1.1,0.5,1.6C692.8,539,692.7,538.4,692.5,537.9z
				 M692.3,564.6c-0.4,1.1-0.8,2.1-1.2,3.1C691.5,566.7,691.9,565.6,692.3,564.6c0.4-1.1,0.7-2.2,1-3.3
				C693,562.4,692.6,563.5,692.3,564.6z M636.6,562.9c-0.3-1-0.6-2.1-0.8-3.1C636,560.8,636.3,561.8,636.6,562.9
				c0.5,1.7,1,3.3,1.7,4.8C637.6,566.1,637,564.5,636.6,562.9z M642.2,574.8c-0.3-0.4-0.6-0.9-0.9-1.3
				C641.6,573.9,641.9,574.4,642.2,574.8c0.3,0.4,0.6,0.8,0.9,1.3C642.8,575.6,642.5,575.2,642.2,574.8z M658,516.9
				c0.8-0.2,1.6-0.3,2.4-0.5C659.6,516.6,658.7,516.7,658,516.9z M692.5,537.9c-0.5-1.6-1-3.1-1.7-4.5
				C691.4,534.8,692,536.3,692.5,537.9c0.2,0.5,0.3,1.1,0.5,1.6C692.8,539,692.7,538.4,692.5,537.9z M692.3,564.6
				c-0.4,1.1-0.8,2.1-1.2,3.1C691.5,566.7,691.9,565.6,692.3,564.6c0.4-1.1,0.7-2.2,1-3.3C693,562.4,692.6,563.5,692.3,564.6z
				 M636.6,562.9c-0.3-1-0.6-2.1-0.8-3.1C636,560.8,636.3,561.8,636.6,562.9c0.5,1.7,1,3.3,1.7,4.8
				C637.6,566.1,637,564.5,636.6,562.9z M642.2,574.8c-0.3-0.4-0.6-0.9-0.9-1.3C641.6,573.9,641.9,574.4,642.2,574.8
				c0.3,0.4,0.6,0.8,0.9,1.3C642.8,575.6,642.5,575.2,642.2,574.8z M658,516.9c0.8-0.2,1.6-0.3,2.4-0.5
				C659.6,516.6,658.7,516.7,658,516.9z M692.5,537.9c-0.5-1.6-1-3.1-1.7-4.5C691.4,534.8,692,536.3,692.5,537.9
				c0.2,0.5,0.3,1.1,0.5,1.6C692.8,539,692.7,538.4,692.5,537.9z M692.3,564.6c-0.4,1.1-0.8,2.1-1.2,3.1
				C691.5,566.7,691.9,565.6,692.3,564.6c0.4-1.1,0.7-2.2,1-3.3C693,562.4,692.6,563.5,692.3,564.6z M636.6,562.9
				c-0.3-1-0.6-2.1-0.8-3.1C636,560.8,636.3,561.8,636.6,562.9c0.5,1.7,1,3.3,1.7,4.8C637.6,566.1,637,564.5,636.6,562.9z
				 M642.2,574.8c-0.3-0.4-0.6-0.9-0.9-1.3C641.6,573.9,641.9,574.4,642.2,574.8c0.3,0.4,0.6,0.8,0.9,1.3
				C642.8,575.6,642.5,575.2,642.2,574.8z M658,516.9c0.8-0.2,1.6-0.3,2.4-0.5C659.6,516.6,658.7,516.7,658,516.9z M692.5,537.9
				c-0.5-1.6-1-3.1-1.7-4.5C691.4,534.8,692,536.3,692.5,537.9c0.2,0.5,0.3,1.1,0.5,1.6C692.8,539,692.7,538.4,692.5,537.9z
				 M692.3,564.6c-0.4,1.1-0.8,2.1-1.2,3.1C691.5,566.7,691.9,565.6,692.3,564.6c0.4-1.1,0.7-2.2,1-3.3
				C693,562.4,692.6,563.5,692.3,564.6z M636.6,562.9c-0.3-1-0.6-2.1-0.8-3.1C636,560.8,636.3,561.8,636.6,562.9
				c0.5,1.7,1,3.3,1.7,4.8C637.6,566.1,637,564.5,636.6,562.9z M642.2,574.8c-0.3-0.4-0.6-0.9-0.9-1.3
				C641.6,573.9,641.9,574.4,642.2,574.8c0.3,0.4,0.6,0.8,0.9,1.3C642.8,575.6,642.5,575.2,642.2,574.8z M658,516.9
				c0.8-0.2,1.6-0.3,2.4-0.5C659.6,516.6,658.7,516.7,658,516.9z M692.5,537.9c-0.5-1.6-1-3.1-1.7-4.5
				C691.4,534.8,692,536.3,692.5,537.9c0.2,0.5,0.3,1.1,0.5,1.6C692.8,539,692.7,538.4,692.5,537.9z M692.3,564.6
				c-0.4,1.1-0.8,2.1-1.2,3.1C691.5,566.7,691.9,565.6,692.3,564.6c0.4-1.1,0.7-2.2,1-3.3C693,562.4,692.6,563.5,692.3,564.6z
				 M636.6,562.9c-0.3-1-0.6-2.1-0.8-3.1C636,560.8,636.3,561.8,636.6,562.9c0.5,1.7,1,3.3,1.7,4.8
				C637.6,566.1,637,564.5,636.6,562.9z M642.2,574.8c-0.3-0.4-0.6-0.9-0.9-1.3C641.6,573.9,641.9,574.4,642.2,574.8
				c0.3,0.4,0.6,0.8,0.9,1.3C642.8,575.6,642.5,575.2,642.2,574.8z M658,516.9c0.8-0.2,1.6-0.3,2.4-0.5
				C659.6,516.6,658.7,516.7,658,516.9z M692.5,537.9c-0.5-1.6-1-3.1-1.7-4.5C691.4,534.8,692,536.3,692.5,537.9
				c0.2,0.5,0.3,1.1,0.5,1.6C692.8,539,692.7,538.4,692.5,537.9z M692.3,564.6c-0.4,1.1-0.8,2.1-1.2,3.1
				C691.5,566.7,691.9,565.6,692.3,564.6c0.4-1.1,0.7-2.2,1-3.3C693,562.4,692.6,563.5,692.3,564.6z M792.8,494.5
				c-0.1,0.2-0.2,0.4-0.3,0.6C792.6,494.9,792.7,494.7,792.8,494.5c0.2-0.3,0.3-0.6,0.5-0.9C793.2,493.8,793,494.1,792.8,494.5z
				 M783.9,516.3c0,0.1,0,0.2-0.1,0.2C783.8,516.5,783.8,516.4,783.9,516.3L783.9,516.3c0.2-0.6,0.4-1.2,0.6-1.8
				C784.3,515.1,784,515.7,783.9,516.3z M784.7,614.6c0-0.1-0.1-0.2-0.1-0.3C784.6,614.4,784.6,614.5,784.7,614.6
				c0.2,0.6,0.5,1.2,0.7,1.8C785.2,615.8,784.9,615.2,784.7,614.6z M784.2,613.3C784.2,613.2,784.2,613.2,784.2,613.3
				C784.2,613.2,784.2,613.2,784.2,613.3c0,0.1,0.1,0.2,0.1,0.3C784.2,613.4,784.2,613.3,784.2,613.3z M778.6,594.5
				c0-0.1,0-0.2-0.1-0.3C778.5,594.3,778.5,594.4,778.6,594.5c0,0,0,0.1,0,0.2C778.6,594.6,778.6,594.5,778.6,594.5z M783.7,516.8
				c-0.1,0.2-0.1,0.4-0.2,0.6C783.6,517.2,783.7,517,783.7,516.8c0-0.1,0.1-0.2,0.1-0.2C783.8,516.6,783.7,516.7,783.7,516.8z
				 M780.9,526.3c0.1-0.6,0.3-1.1,0.4-1.6C781.2,525.3,781.1,525.8,780.9,526.3z M778.6,536.8L778.6,536.8
				C778.6,536.8,778.6,536.8,778.6,536.8C778.6,536.8,778.6,536.8,778.6,536.8z M778.4,534.3c0.1,0.8,0.1,1.7,0.2,2.5h0c0,0,0,0,0,0
				C778.5,536,778.5,535.1,778.4,534.3z M777.6,589.2c-0.1-0.5-0.2-1.1-0.3-1.6C777.4,588.1,777.5,588.6,777.6,589.2
				c0,0.2,0,0.4,0.1,0.5C777.6,589.5,777.6,589.4,777.6,589.2z M776.7,583.4c0-0.3-0.1-0.6-0.1-0.9
				C776.7,582.8,776.7,583.1,776.7,583.4c0,0.3,0.1,0.7,0.1,1C776.8,584.1,776.8,583.7,776.7,583.4z M776,574.4L776,574.4
				C776,574.5,776,574.5,776,574.4c0,0.5,0,0.9,0.1,1.3c0.1-0.6,0.1-1.7,0.2-2.3c0-0.1,0-0.3,0.1-0.4
				C776.2,573.5,776.1,574,776,574.4z M775.7,516.5c0-0.2-0.1-0.4-0.1-0.6v0c0-0.2-0.1-0.3-0.1-0.5c0.1,0.2,0.1,0.3,0.1,0.5v0
				C775.6,516.1,775.7,516.3,775.7,516.5z M770.6,499.7c0-0.1-0.1-0.2-0.1-0.3C770.5,499.5,770.6,499.6,770.6,499.7
				c0.2,0.4,0.3,0.9,0.5,1.3C771,500.5,770.8,500.1,770.6,499.7z M770.2,498.5c-0.1-0.3-0.3-0.6-0.4-0.9
				C769.9,497.9,770,498.2,770.2,498.5c0.1,0.2,0.2,0.5,0.3,0.8C770.4,499,770.3,498.8,770.2,498.5z M760.5,612.9l-0.2,0.3
				L760.5,612.9c0.1-0.2,0.2-0.3,0.3-0.5C760.7,612.6,760.6,612.8,760.5,612.9z M761.5,611.2c0,0-0.1,0.1-0.1,0.2
				C761.4,611.3,761.5,611.3,761.5,611.2c0.2-0.3,0.3-0.6,0.5-0.8C761.8,610.7,761.7,610.9,761.5,611.2z M759.3,614.9
				c0,0-0.1,0.1-0.1,0.2C759.2,615,759.2,614.9,759.3,614.9C759.3,614.9,759.3,614.8,759.3,614.9
				C759.3,614.8,759.3,614.9,759.3,614.9z M758.3,616.3c-0.3,0.5-0.6,1-1,1.4C757.7,617.2,758,616.7,758.3,616.3
				C758.3,616.2,758.4,616.2,758.3,616.3C758.4,616.2,758.3,616.2,758.3,616.3z M756.4,619.1C756.4,619.1,756.4,619.1,756.4,619.1
				C756.4,619.1,756.4,619.1,756.4,619.1c0.1-0.2,0.3-0.3,0.4-0.5C756.6,618.7,756.5,618.9,756.4,619.1z M752.4,624.3
				C752.4,624.3,752.4,624.3,752.4,624.3C752.4,624.3,752.4,624.3,752.4,624.3c0.7-0.8,1.3-1.7,1.9-2.5
				C753.8,622.6,753.1,623.5,752.4,624.3z M752.4,624.4c-0.2,0.2-0.3,0.4-0.5,0.6C752.1,624.8,752.2,624.6,752.4,624.4
				C752.4,624.4,752.4,624.4,752.4,624.4z M751.8,625.1c0,0.1-0.2,0.2-0.3,0.4C751.6,625.3,751.7,625.2,751.8,625.1l0.2-0.2
				L751.8,625.1z M714.7,654.6c2.8-1.4,5.6-2.8,8.2-4.4C720.3,651.8,717.5,653.3,714.7,654.6z M558,512.9c-0.1,0.4-0.3,0.8-0.4,1.2
				c0,0,0,0,0,0c0,0,0,0,0,0C557.7,513.6,557.8,513.3,558,512.9c0,0,0-0.1,0-0.1C558,512.8,558,512.8,558,512.9z M561.7,502.8
				c-0.1,0.2-0.1,0.4-0.2,0.5C561.5,503.1,561.6,503,561.7,502.8c0.1-0.2,0.2-0.4,0.2-0.6C561.9,502.4,561.8,502.6,561.7,502.8z
				 M565.5,494.7c-0.3,0.5-0.5,1-0.7,1.4C565,495.6,565.2,495.1,565.5,494.7c0.2-0.3,0.3-0.6,0.5-1
				C565.8,494,565.6,494.3,565.5,494.7z M565.5,606C565.5,606,565.5,606,565.5,606c0,0.1,0.1,0.2,0.1,0.3
				C565.6,606.2,565.6,606.1,565.5,606z M561.3,597l-0.3-0.6c-0.2-0.4-0.3-0.8-0.5-1.2c0-0.1-0.1-0.1-0.1-0.2c0,0.1,0,0.1,0.1,0.2
				c0.2,0.4,0.3,0.8,0.5,1.2L561.3,597c0,0.1,0.1,0.3,0.2,0.4C561.4,597.3,561.3,597.2,561.3,597z M558.4,589.6c0,0,0-0.1,0-0.1
				C558.4,589.5,558.4,589.5,558.4,589.6c0.2,0.5,0.3,0.9,0.5,1.4C558.7,590.5,558.6,590,558.4,589.6z M552.3,541.6
				c0.1-1.6,0.3-3.2,0.5-4.8C552.6,538.4,552.4,540,552.3,541.6z M537.5,600.5c0.8-1.6,1.5-3.2,2.2-4.8
				C539,597.3,538.3,598.9,537.5,600.5z M542.1,589.8C542.1,589.8,542.1,589.8,542.1,589.8c0,0,0-0.1,0.1-0.2
				C542.1,589.6,542.1,589.7,542.1,589.8z M543.6,506.6c0-0.1-0.1-0.3-0.1-0.4c0.2,0.4,0.3,0.9,0.4,1.3
				C543.8,507.2,543.7,506.9,543.6,506.6z M547.6,522.4c-0.1-0.4-0.2-0.8-0.2-1.2c0-0.2-0.1-0.5-0.1-0.7c0,0.2,0.1,0.5,0.1,0.7v0
				C547.4,521.6,547.5,522,547.6,522.4z M636.6,562.9c-0.3-1-0.6-2.1-0.8-3.1C636,560.8,636.3,561.8,636.6,562.9
				c0.5,1.7,1,3.3,1.7,4.8C637.6,566.1,637,564.5,636.6,562.9z M642.2,574.8c-0.3-0.4-0.6-0.9-0.9-1.3
				C641.6,573.9,641.9,574.4,642.2,574.8c0.3,0.4,0.6,0.8,0.9,1.3C642.8,575.6,642.5,575.2,642.2,574.8z M658,516.9
				c0.8-0.2,1.6-0.3,2.4-0.5C659.6,516.6,658.7,516.7,658,516.9z M692.5,537.9c-0.5-1.6-1-3.1-1.7-4.5
				C691.4,534.8,692,536.3,692.5,537.9c0.2,0.5,0.3,1.1,0.5,1.6C692.8,539,692.7,538.4,692.5,537.9z M692.3,564.6
				c-0.4,1.1-0.8,2.1-1.2,3.1C691.5,566.7,691.9,565.6,692.3,564.6c0.4-1.1,0.7-2.2,1-3.3C693,562.4,692.6,563.5,692.3,564.6z
				 M636.6,562.9c-0.3-1-0.6-2.1-0.8-3.1C636,560.8,636.3,561.8,636.6,562.9c0.5,1.7,1,3.3,1.7,4.8
				C637.6,566.1,637,564.5,636.6,562.9z M642.2,574.8c-0.3-0.4-0.6-0.9-0.9-1.3C641.6,573.9,641.9,574.4,642.2,574.8
				c0.3,0.4,0.6,0.8,0.9,1.3C642.8,575.6,642.5,575.2,642.2,574.8z M658,516.9c0.8-0.2,1.6-0.3,2.4-0.5
				C659.6,516.6,658.7,516.7,658,516.9z M692.5,537.9c-0.5-1.6-1-3.1-1.7-4.5C691.4,534.8,692,536.3,692.5,537.9
				c0.2,0.5,0.3,1.1,0.5,1.6C692.8,539,692.7,538.4,692.5,537.9z M692.3,564.6c-0.4,1.1-0.8,2.1-1.2,3.1
				C691.5,566.7,691.9,565.6,692.3,564.6c0.4-1.1,0.7-2.2,1-3.3C693,562.4,692.6,563.5,692.3,564.6z M636.6,562.9
				c-0.3-1-0.6-2.1-0.8-3.1C636,560.8,636.3,561.8,636.6,562.9c0.5,1.7,1,3.3,1.7,4.8C637.6,566.1,637,564.5,636.6,562.9z
				 M642.2,574.8c-0.3-0.4-0.6-0.9-0.9-1.3C641.6,573.9,641.9,574.4,642.2,574.8c0.3,0.4,0.6,0.8,0.9,1.3
				C642.8,575.6,642.5,575.2,642.2,574.8z M658,516.9c0.8-0.2,1.6-0.3,2.4-0.5C659.6,516.6,658.7,516.7,658,516.9z M692.5,537.9
				c-0.5-1.6-1-3.1-1.7-4.5C691.4,534.8,692,536.3,692.5,537.9c0.2,0.5,0.3,1.1,0.5,1.6C692.8,539,692.7,538.4,692.5,537.9z
				 M692.3,564.6c-0.4,1.1-0.8,2.1-1.2,3.1C691.5,566.7,691.9,565.6,692.3,564.6c0.4-1.1,0.7-2.2,1-3.3
				C693,562.4,692.6,563.5,692.3,564.6z M636.6,562.9c-0.3-1-0.6-2.1-0.8-3.1C636,560.8,636.3,561.8,636.6,562.9
				c0.5,1.7,1,3.3,1.7,4.8C637.6,566.1,637,564.5,636.6,562.9z M642.2,574.8c-0.3-0.4-0.6-0.9-0.9-1.3
				C641.6,573.9,641.9,574.4,642.2,574.8c0.3,0.4,0.6,0.8,0.9,1.3C642.8,575.6,642.5,575.2,642.2,574.8z M658,516.9
				c0.8-0.2,1.6-0.3,2.4-0.5C659.6,516.6,658.7,516.7,658,516.9z M692.5,537.9c-0.5-1.6-1-3.1-1.7-4.5
				C691.4,534.8,692,536.3,692.5,537.9c0.2,0.5,0.3,1.1,0.5,1.6C692.8,539,692.7,538.4,692.5,537.9z M692.3,564.6
				c-0.4,1.1-0.8,2.1-1.2,3.1C691.5,566.7,691.9,565.6,692.3,564.6c0.4-1.1,0.7-2.2,1-3.3C693,562.4,692.6,563.5,692.3,564.6z
				 M636.6,562.9c-0.3-1-0.6-2.1-0.8-3.1C636,560.8,636.3,561.8,636.6,562.9c0.5,1.7,1,3.3,1.7,4.8
				C637.6,566.1,637,564.5,636.6,562.9z M642.2,574.8c-0.3-0.4-0.6-0.9-0.9-1.3C641.6,573.9,641.9,574.4,642.2,574.8
				c0.3,0.4,0.6,0.8,0.9,1.3C642.8,575.6,642.5,575.2,642.2,574.8z M658,516.9c0.8-0.2,1.6-0.3,2.4-0.5
				C659.6,516.6,658.7,516.7,658,516.9z M692.5,537.9c-0.5-1.6-1-3.1-1.7-4.5C691.4,534.8,692,536.3,692.5,537.9
				c0.2,0.5,0.3,1.1,0.5,1.6C692.8,539,692.7,538.4,692.5,537.9z M692.3,564.6c-0.4,1.1-0.8,2.1-1.2,3.1
				C691.5,566.7,691.9,565.6,692.3,564.6c0.4-1.1,0.7-2.2,1-3.3C693,562.4,692.6,563.5,692.3,564.6z M636.6,562.9
				c-0.3-1-0.6-2.1-0.8-3.1C636,560.8,636.3,561.8,636.6,562.9c0.5,1.7,1,3.3,1.7,4.8C637.6,566.1,637,564.5,636.6,562.9z
				 M642.2,574.8c-0.3-0.4-0.6-0.9-0.9-1.3C641.6,573.9,641.9,574.4,642.2,574.8c0.3,0.4,0.6,0.8,0.9,1.3
				C642.8,575.6,642.5,575.2,642.2,574.8z M658,516.9c0.8-0.2,1.6-0.3,2.4-0.5C659.6,516.6,658.7,516.7,658,516.9z M692.5,537.9
				c-0.5-1.6-1-3.1-1.7-4.5C691.4,534.8,692,536.3,692.5,537.9c0.2,0.5,0.3,1.1,0.5,1.6C692.8,539,692.7,538.4,692.5,537.9z
				 M692.3,564.6c-0.4,1.1-0.8,2.1-1.2,3.1C691.5,566.7,691.9,565.6,692.3,564.6c0.4-1.1,0.7-2.2,1-3.3
				C693,562.4,692.6,563.5,692.3,564.6z M636.6,562.9c-0.3-1-0.6-2.1-0.8-3.1C636,560.8,636.3,561.8,636.6,562.9
				c0.5,1.7,1,3.3,1.7,4.8C637.6,566.1,637,564.5,636.6,562.9z M642.2,574.8c-0.3-0.4-0.6-0.9-0.9-1.3
				C641.6,573.9,641.9,574.4,642.2,574.8c0.3,0.4,0.6,0.8,0.9,1.3C642.8,575.6,642.5,575.2,642.2,574.8z M658,516.9
				c0.8-0.2,1.6-0.3,2.4-0.5C659.6,516.6,658.7,516.7,658,516.9z M692.5,537.9c-0.5-1.6-1-3.1-1.7-4.5
				C691.4,534.8,692,536.3,692.5,537.9c0.2,0.5,0.3,1.1,0.5,1.6C692.8,539,692.7,538.4,692.5,537.9z M692.3,564.6
				c-0.4,1.1-0.8,2.1-1.2,3.1C691.5,566.7,691.9,565.6,692.3,564.6c0.4-1.1,0.7-2.2,1-3.3C693,562.4,692.6,563.5,692.3,564.6z
				 M636.6,562.9c-0.3-1-0.6-2.1-0.8-3.1C636,560.8,636.3,561.8,636.6,562.9c0.5,1.7,1,3.3,1.7,4.8
				C637.6,566.1,637,564.5,636.6,562.9z M642.2,574.8c-0.3-0.4-0.6-0.9-0.9-1.3C641.6,573.9,641.9,574.4,642.2,574.8
				c0.3,0.4,0.6,0.8,0.9,1.3C642.8,575.6,642.5,575.2,642.2,574.8z M658,516.9c0.8-0.2,1.6-0.3,2.4-0.5
				C659.6,516.6,658.7,516.7,658,516.9z M692.5,537.9c-0.5-1.6-1-3.1-1.7-4.5C691.4,534.8,692,536.3,692.5,537.9
				c0.2,0.5,0.3,1.1,0.5,1.6C692.8,539,692.7,538.4,692.5,537.9z M692.3,564.6c-0.4,1.1-0.8,2.1-1.2,3.1
				C691.5,566.7,691.9,565.6,692.3,564.6c0.4-1.1,0.7-2.2,1-3.3C693,562.4,692.6,563.5,692.3,564.6z M636.6,562.9
				c-0.3-1-0.6-2.1-0.8-3.1C636,560.8,636.3,561.8,636.6,562.9c0.5,1.7,1,3.3,1.7,4.8C637.6,566.1,637,564.5,636.6,562.9z
				 M642.2,574.8c-0.3-0.4-0.6-0.9-0.9-1.3C641.6,573.9,641.9,574.4,642.2,574.8c0.3,0.4,0.6,0.8,0.9,1.3
				C642.8,575.6,642.5,575.2,642.2,574.8z M658,516.9c0.8-0.2,1.6-0.3,2.4-0.5C659.6,516.6,658.7,516.7,658,516.9z M692.5,537.9
				c-0.5-1.6-1-3.1-1.7-4.5C691.4,534.8,692,536.3,692.5,537.9c0.2,0.5,0.3,1.1,0.5,1.6C692.8,539,692.7,538.4,692.5,537.9z
				 M692.3,564.6c-0.4,1.1-0.8,2.1-1.2,3.1C691.5,566.7,691.9,565.6,692.3,564.6c0.4-1.1,0.7-2.2,1-3.3
				C693,562.4,692.6,563.5,692.3,564.6z M636.6,562.9c-0.3-1-0.6-2.1-0.8-3.1C636,560.8,636.3,561.8,636.6,562.9
				c0.5,1.7,1,3.3,1.7,4.8C637.6,566.1,637,564.5,636.6,562.9z M642.2,574.8c-0.3-0.4-0.6-0.9-0.9-1.3
				C641.6,573.9,641.9,574.4,642.2,574.8c0.3,0.4,0.6,0.8,0.9,1.3C642.8,575.6,642.5,575.2,642.2,574.8z M658,516.9
				c0.8-0.2,1.6-0.3,2.4-0.5C659.6,516.6,658.7,516.7,658,516.9z M692.5,537.9c-0.5-1.6-1-3.1-1.7-4.5
				C691.4,534.8,692,536.3,692.5,537.9c0.2,0.5,0.3,1.1,0.5,1.6C692.8,539,692.7,538.4,692.5,537.9z M692.3,564.6
				c-0.4,1.1-0.8,2.1-1.2,3.1C691.5,566.7,691.9,565.6,692.3,564.6c0.4-1.1,0.7-2.2,1-3.3C693,562.4,692.6,563.5,692.3,564.6z
				 M636.6,562.9c-0.3-1-0.6-2.1-0.8-3.1C636,560.8,636.3,561.8,636.6,562.9c0.5,1.7,1,3.3,1.7,4.8
				C637.6,566.1,637,564.5,636.6,562.9z M642.2,574.8c-0.3-0.4-0.6-0.9-0.9-1.3C641.6,573.9,641.9,574.4,642.2,574.8
				c0.3,0.4,0.6,0.8,0.9,1.3C642.8,575.6,642.5,575.2,642.2,574.8z M658,516.9c0.8-0.2,1.6-0.3,2.4-0.5
				C659.6,516.6,658.7,516.7,658,516.9z M692.5,537.9c-0.5-1.6-1-3.1-1.7-4.5C691.4,534.8,692,536.3,692.5,537.9
				c0.2,0.5,0.3,1.1,0.5,1.6C692.8,539,692.7,538.4,692.5,537.9z M692.3,564.6c-0.4,1.1-0.8,2.1-1.2,3.1
				C691.5,566.7,691.9,565.6,692.3,564.6c0.4-1.1,0.7-2.2,1-3.3C693,562.4,692.6,563.5,692.3,564.6z M636.6,562.9
				c-0.3-1-0.6-2.1-0.8-3.1C636,560.8,636.3,561.8,636.6,562.9c0.5,1.7,1,3.3,1.7,4.8C637.6,566.1,637,564.5,636.6,562.9z
				 M642.2,574.8c-0.3-0.4-0.6-0.9-0.9-1.3C641.6,573.9,641.9,574.4,642.2,574.8c0.3,0.4,0.6,0.8,0.9,1.3
				C642.8,575.6,642.5,575.2,642.2,574.8z M658,516.9c0.8-0.2,1.6-0.3,2.4-0.5C659.6,516.6,658.7,516.7,658,516.9z M692.5,537.9
				c-0.5-1.6-1-3.1-1.7-4.5C691.4,534.8,692,536.3,692.5,537.9c0.2,0.5,0.3,1.1,0.5,1.6C692.8,539,692.7,538.4,692.5,537.9z
				 M692.3,564.6c-0.4,1.1-0.8,2.1-1.2,3.1C691.5,566.7,691.9,565.6,692.3,564.6c0.4-1.1,0.7-2.2,1-3.3
				C693,562.4,692.6,563.5,692.3,564.6z M636.6,562.9c-0.3-1-0.6-2.1-0.8-3.1C636,560.8,636.3,561.8,636.6,562.9
				c0.5,1.7,1,3.3,1.7,4.8C637.6,566.1,637,564.5,636.6,562.9z M642.2,574.8c-0.3-0.4-0.6-0.9-0.9-1.3
				C641.6,573.9,641.9,574.4,642.2,574.8c0.3,0.4,0.6,0.8,0.9,1.3C642.8,575.6,642.5,575.2,642.2,574.8z M658,516.9
				c0.8-0.2,1.6-0.3,2.4-0.5C659.6,516.6,658.7,516.7,658,516.9z M692.5,537.9c-0.5-1.6-1-3.1-1.7-4.5
				C691.4,534.8,692,536.3,692.5,537.9c0.2,0.5,0.3,1.1,0.5,1.6C692.8,539,692.7,538.4,692.5,537.9z M692.3,564.6
				c-0.4,1.1-0.8,2.1-1.2,3.1C691.5,566.7,691.9,565.6,692.3,564.6c0.4-1.1,0.7-2.2,1-3.3C693,562.4,692.6,563.5,692.3,564.6z"/>
			<path class="st2" d="M873,533.6c-0.4,0.9-0.8,1.8-1.1,2.7C872.2,535.4,872.6,534.5,873,533.6c0.4-0.9,0.8-1.7,1.3-2.6
				C873.8,531.9,873.3,532.8,873,533.6z M886.2,530.7l-2.1,51.8L886.2,530.7c0-0.1,0-0.1,0-0.2C886.2,530.5,886.2,530.6,886.2,530.7
				z M908.5,503.3c1.9-0.6,3.9-1.1,5.9-1.5C912.4,502.2,910.4,502.7,908.5,503.3z M949.8,501.5c-4.2-0.5-8.3-0.9-12.4-1.1
				C941.5,500.6,945.6,500.9,949.8,501.5c3.1,0.4,6.2,1,9.2,1.7C956,502.4,952.9,501.8,949.8,501.5z M971,506.3
				c0.3-0.1,0.5-0.1,0.8-0.3C971.5,506.2,971.3,506.3,971,506.3z M972.3,505.8c-0.2,0.1-0.3,0.2-0.5,0.3
				C972,506,972.1,505.9,972.3,505.8c0.2-0.1,0.4-0.3,0.6-0.5C972.7,505.5,972.5,505.6,972.3,505.8z M792.8,494.5
				c-0.1,0.2-0.2,0.4-0.3,0.6C792.6,494.9,792.7,494.7,792.8,494.5c0.2-0.3,0.3-0.6,0.5-0.9C793.2,493.8,793,494.1,792.8,494.5z
				 M783.9,516.3c0,0.1,0,0.2-0.1,0.2C783.8,516.5,783.8,516.4,783.9,516.3L783.9,516.3c0.2-0.6,0.4-1.2,0.6-1.8
				C784.3,515.1,784,515.7,783.9,516.3z M784.7,614.6c0-0.1-0.1-0.2-0.1-0.3C784.6,614.4,784.6,614.5,784.7,614.6
				c0.2,0.6,0.5,1.2,0.7,1.8C785.2,615.8,784.9,615.2,784.7,614.6z M784.2,613.3C784.2,613.2,784.2,613.2,784.2,613.3
				C784.2,613.2,784.2,613.2,784.2,613.3c0,0.1,0.1,0.2,0.1,0.3C784.2,613.4,784.2,613.3,784.2,613.3z M778.6,594.5
				c0-0.1,0-0.2-0.1-0.3C778.5,594.3,778.5,594.4,778.6,594.5c0,0,0,0.1,0,0.2C778.6,594.6,778.6,594.5,778.6,594.5z M783.7,516.8
				c-0.1,0.2-0.1,0.4-0.2,0.6C783.6,517.2,783.7,517,783.7,516.8c0-0.1,0.1-0.2,0.1-0.2C783.8,516.6,783.7,516.7,783.7,516.8z
				 M780.9,526.3c0.1-0.6,0.3-1.1,0.4-1.6C781.2,525.3,781.1,525.8,780.9,526.3z M778.6,536.8L778.6,536.8
				C778.6,536.8,778.6,536.8,778.6,536.8C778.6,536.8,778.6,536.8,778.6,536.8z M778.4,534.3c0.1,0.8,0.1,1.7,0.2,2.5h0c0,0,0,0,0,0
				C778.5,536,778.5,535.1,778.4,534.3z M777.6,589.2c-0.1-0.5-0.2-1.1-0.3-1.6C777.4,588.1,777.5,588.6,777.6,589.2
				c0,0.2,0,0.4,0.1,0.5C777.6,589.5,777.6,589.4,777.6,589.2z M776.7,583.4c0-0.3-0.1-0.6-0.1-0.9
				C776.7,582.8,776.7,583.1,776.7,583.4c0,0.3,0.1,0.7,0.1,1C776.8,584.1,776.8,583.7,776.7,583.4z M776,574.4L776,574.4
				C776,574.5,776,574.5,776,574.4c0,0.5,0,0.9,0.1,1.3c0.1-0.6,0.1-1.7,0.2-2.3c0-0.1,0-0.3,0.1-0.4
				C776.2,573.5,776.1,574,776,574.4z M775.7,516.5c0-0.2-0.1-0.4-0.1-0.6v0c0-0.2-0.1-0.3-0.1-0.5c0.1,0.2,0.1,0.3,0.1,0.5v0
				C775.6,516.1,775.7,516.3,775.7,516.5z M770.6,499.7c0-0.1-0.1-0.2-0.1-0.3C770.5,499.5,770.6,499.6,770.6,499.7
				c0.2,0.4,0.3,0.9,0.5,1.3C771,500.5,770.8,500.1,770.6,499.7z M770.2,498.5c-0.1-0.3-0.3-0.6-0.4-0.9
				C769.9,497.9,770,498.2,770.2,498.5c0.1,0.2,0.2,0.5,0.3,0.8C770.4,499,770.3,498.8,770.2,498.5z M760.5,612.9l-0.2,0.3
				L760.5,612.9c0.1-0.2,0.2-0.3,0.3-0.5C760.7,612.6,760.6,612.8,760.5,612.9z M761.5,611.2c0,0-0.1,0.1-0.1,0.2
				C761.4,611.3,761.5,611.3,761.5,611.2c0.2-0.3,0.3-0.6,0.5-0.8C761.8,610.7,761.7,610.9,761.5,611.2z"/>
			<path class="st2" d="M980.2,658.1L980.2,658.1c0.1,0,0.1-0.1,0.2-0.1C980.3,658,980.3,658.1,980.2,658.1z M1229.3,503.7
				c0.2-0.5,0.4-1,0.6-1.5C1229.8,502.7,1229.6,503.2,1229.3,503.7z M1236.1,648.8l4.1,4.2v-0.2
				C1238.8,651.4,1237.4,650.1,1236.1,648.8z"/>
			<path class="st2" d="M1430,610.5c-0.1,0.1-0.1,0.3-0.2,0.4C1429.8,610.8,1429.9,610.7,1430,610.5c0.3-0.4,0.5-0.9,0.8-1.3
				C1430.5,609.6,1430.2,610.1,1430,610.5z M1229.3,503.7c0.2-0.5,0.4-1,0.6-1.5C1229.8,502.7,1229.6,503.2,1229.3,503.7z"/>
			<g>
				<path class="st2" d="M1550.7,439.2l1.3,2.7c0.1-1,0.2-1.9,0.2-2.9L1550.7,439.2z"/>
				<path class="st3" d="M1606.5,587.4L1606.5,587.4 M1430,610.5c-0.1,0.1-0.1,0.3-0.2,0.4C1429.8,610.8,1429.9,610.7,1430,610.5
					c0.3-0.4,0.5-0.9,0.8-1.3C1430.5,609.6,1430.2,610.1,1430,610.5z M1550.7,439.2l1.3,2.7c0.1-1,0.2-1.9,0.2-2.9L1550.7,439.2z"/>
			</g>
			<g>
				<path class="st2" d="M1550.7,439.2l1.3,2.7c0.1-1,0.2-1.9,0.2-2.9L1550.7,439.2z M1757.7,442.2L1757.7,442.2L1757.7,442.2
					L1757.7,442.2z M1663.1,438l8,32.7l0.6,1.5L1663.1,438z M1757.7,442.2L1757.7,442.2L1757.7,442.2
					C1757.7,442.2,1757.7,442.2,1757.7,442.2C1757.7,442.2,1757.7,442.2,1757.7,442.2z M1757.7,442.2L1757.7,442.2L1757.7,442.2
					L1757.7,442.2z"/>
				<path class="st2" d="M1550.7,439.2l1.3,2.7c0.1-1,0.2-1.9,0.2-2.9L1550.7,439.2z M1757.7,442.2L1757.7,442.2
					C1757.7,442.2,1757.7,442.2,1757.7,442.2C1757.7,442.2,1757.7,442.2,1757.7,442.2z M1663.1,438l8,32.7l0.6,1.5L1663.1,438z"/>
			</g>
		</g>
		<g>
			<path class="st2" d="M326.8,629.3L326.8,629.3l0.3,14.3L326.8,629.3z M244.3,598.6c0.2,0,0.5-0.1,0.7-0.2
				c0.5-0.1,0.9-0.3,1.3-0.4c0.4-0.1,0.8-0.3,1.2-0.4c0.4-0.2,0.8-0.3,1.2-0.5c0.8-0.3,1.5-0.7,2.1-1.1c0.7-0.4,1.4-0.8,2-1.3
				l0.1-2.2C250.3,595.4,247,597.8,244.3,598.6z M218.4,598.1c1.1,0.5,2.3,0.9,3.6,1.2C220.7,599,219.5,598.6,218.4,598.1z"/>
			<path class="st2" d="M552.3,541.6c0.1-1.6,0.3-3.2,0.5-4.8C552.6,538.4,552.4,540,552.3,541.6z M547.6,522.4
				c-0.1-0.4-0.2-0.8-0.2-1.2c0-0.2-0.1-0.5-0.1-0.7c0,0.2,0.1,0.5,0.1,0.7v0C547.4,521.6,547.5,522,547.6,522.4z M542.1,589.8
				C542.1,589.8,542.1,589.8,542.1,589.8c0,0,0-0.1,0.1-0.2C542.1,589.6,542.1,589.7,542.1,589.8z M537,491c0.2,0.4,0.4,0.8,0.6,1.2
				c0.1,0.3,0.3,0.6,0.4,0.9C537.8,492.3,537.4,491.6,537,491z M535.3,487.6c0.2,0.4,0.4,0.7,0.6,1.1c0.1,0.2,0.3,0.5,0.4,0.8
				C535.9,488.8,535.6,488.2,535.3,487.6z"/>
			<path class="st2" d="M642.2,574.8c-0.3-0.4-0.6-0.9-0.9-1.3C641.6,573.9,641.9,574.4,642.2,574.8c0.3,0.4,0.6,0.8,0.9,1.3
				C642.8,575.6,642.5,575.2,642.2,574.8z M658,516.9c0.8-0.2,1.6-0.3,2.4-0.5C659.6,516.6,658.7,516.7,658,516.9z M692.5,537.9
				c-0.5-1.6-1-3.1-1.7-4.5C691.4,534.8,692,536.3,692.5,537.9c0.2,0.5,0.3,1.1,0.5,1.6C692.8,539,692.7,538.4,692.5,537.9z
				 M692.3,564.6c-0.4,1.1-0.8,2.1-1.2,3.1C691.5,566.7,691.9,565.6,692.3,564.6c0.4-1.1,0.7-2.2,1-3.3
				C693,562.4,692.6,563.5,692.3,564.6z M642.2,574.8c-0.3-0.4-0.6-0.9-0.9-1.3C641.6,573.9,641.9,574.4,642.2,574.8
				c0.3,0.4,0.6,0.8,0.9,1.3C642.8,575.6,642.5,575.2,642.2,574.8z M658,516.9c0.8-0.2,1.6-0.3,2.4-0.5
				C659.6,516.6,658.7,516.7,658,516.9z M692.5,537.9c-0.5-1.6-1-3.1-1.7-4.5C691.4,534.8,692,536.3,692.5,537.9
				c0.2,0.5,0.3,1.1,0.5,1.6C692.8,539,692.7,538.4,692.5,537.9z M692.3,564.6c-0.4,1.1-0.8,2.1-1.2,3.1
				C691.5,566.7,691.9,565.6,692.3,564.6c0.4-1.1,0.7-2.2,1-3.3C693,562.4,692.6,563.5,692.3,564.6z M547.3,521.2
				C547.3,521.2,547.3,521.3,547.3,521.2L547.3,521.2c0.1,0.4,0.1,0.8,0.2,1.2C547.5,522,547.4,521.6,547.3,521.2z M561.3,597
				l-0.3-0.6c-0.2-0.4-0.3-0.8-0.5-1.2c0-0.1-0.1-0.1-0.1-0.2c0,0.1,0,0.1,0.1,0.2c0.2,0.4,0.3,0.8,0.5,1.2L561.3,597
				c0,0.1,0.1,0.3,0.2,0.4C561.4,597.3,561.3,597.2,561.3,597z M565.5,606C565.5,606,565.5,606,565.5,606c0,0.1,0.1,0.2,0.1,0.3
				C565.6,606.2,565.6,606.1,565.5,606z M642.2,574.8c-0.3-0.4-0.6-0.9-0.9-1.3C641.6,573.9,641.9,574.4,642.2,574.8
				c0.3,0.4,0.6,0.8,0.9,1.3C642.8,575.6,642.5,575.2,642.2,574.8z M658,516.9c0.8-0.2,1.6-0.3,2.4-0.5
				C659.6,516.6,658.7,516.7,658,516.9z M692.5,537.9c-0.5-1.6-1-3.1-1.7-4.5C691.4,534.8,692,536.3,692.5,537.9
				c0.2,0.5,0.3,1.1,0.5,1.6C692.8,539,692.7,538.4,692.5,537.9z M692.3,564.6c-0.4,1.1-0.8,2.1-1.2,3.1
				C691.5,566.7,691.9,565.6,692.3,564.6c0.4-1.1,0.7-2.2,1-3.3C693,562.4,692.6,563.5,692.3,564.6z M714.7,654.6
				c2.8-1.4,5.6-2.8,8.2-4.4C720.3,651.8,717.5,653.3,714.7,654.6z M751.8,625.1c0,0.1-0.2,0.2-0.3,0.4
				C751.6,625.3,751.7,625.2,751.8,625.1l0.2-0.2L751.8,625.1z M752.4,624.4c-0.2,0.2-0.3,0.4-0.5,0.6
				C752.1,624.8,752.2,624.6,752.4,624.4C752.4,624.4,752.4,624.4,752.4,624.4z M752.4,624.3C752.4,624.3,752.4,624.3,752.4,624.3
				C752.4,624.3,752.4,624.3,752.4,624.3c0.7-0.8,1.3-1.7,1.9-2.5C753.8,622.6,753.1,623.5,752.4,624.3z M758.3,616.3
				c-0.3,0.5-0.6,1-1,1.4C757.7,617.2,758,616.7,758.3,616.3C758.3,616.2,758.4,616.2,758.3,616.3
				C758.4,616.2,758.3,616.2,758.3,616.3z M759.3,614.9c0,0-0.1,0.1-0.1,0.2C759.2,615,759.2,614.9,759.3,614.9
				C759.3,614.9,759.3,614.8,759.3,614.9C759.3,614.8,759.3,614.9,759.3,614.9z M558,512.9c-0.1,0.4-0.3,0.8-0.4,1.2c0,0,0,0,0,0
				c0,0,0,0,0,0C557.7,513.6,557.8,513.3,558,512.9c0,0,0-0.1,0-0.1C558,512.8,558,512.8,558,512.9z M561.7,502.8
				c-0.1,0.2-0.1,0.4-0.2,0.5C561.5,503.1,561.6,503,561.7,502.8c0.1-0.2,0.2-0.4,0.2-0.6C561.9,502.4,561.8,502.6,561.7,502.8z
				 M565.5,494.7c-0.3,0.5-0.5,1-0.7,1.4C565,495.6,565.2,495.1,565.5,494.7c0.2-0.3,0.3-0.6,0.5-1
				C565.8,494,565.6,494.3,565.5,494.7z M642.2,574.8c-0.3-0.4-0.6-0.9-0.9-1.3C641.6,573.9,641.9,574.4,642.2,574.8
				c0.3,0.4,0.6,0.8,0.9,1.3C642.8,575.6,642.5,575.2,642.2,574.8z M658,516.9c0.8-0.2,1.6-0.3,2.4-0.5
				C659.6,516.6,658.7,516.7,658,516.9z M692.5,537.9c-0.5-1.6-1-3.1-1.7-4.5C691.4,534.8,692,536.3,692.5,537.9
				c0.2,0.5,0.3,1.1,0.5,1.6C692.8,539,692.7,538.4,692.5,537.9z M692.3,564.6c-0.4,1.1-0.8,2.1-1.2,3.1
				C691.5,566.7,691.9,565.6,692.3,564.6c0.4-1.1,0.7-2.2,1-3.3C693,562.4,692.6,563.5,692.3,564.6z M770.6,499.7
				c0-0.1-0.1-0.2-0.1-0.3C770.5,499.5,770.6,499.6,770.6,499.7c0.2,0.4,0.3,0.9,0.5,1.3C771,500.5,770.8,500.1,770.6,499.7z
				 M783.9,516.3c0,0.1,0,0.2-0.1,0.2C783.8,516.5,783.8,516.4,783.9,516.3L783.9,516.3L783.9,516.3z M783.7,516.8
				c-0.1,0.2-0.1,0.4-0.2,0.6C783.6,517.2,783.7,517,783.7,516.8c0-0.1,0.1-0.2,0.1-0.2C783.8,516.6,783.7,516.7,783.7,516.8z
				 M780.9,526.3c0.1-0.6,0.3-1.1,0.4-1.6C781.2,525.3,781.1,525.8,780.9,526.3z M777.6,589.2c-0.1-0.5-0.2-1.1-0.3-1.6
				C777.4,588.1,777.5,588.6,777.6,589.2c0,0.2,0,0.4,0.1,0.5C777.6,589.5,777.6,589.4,777.6,589.2z M776.7,583.4
				c0-0.3-0.1-0.6-0.1-0.9C776.7,582.8,776.7,583.1,776.7,583.4c0,0.3,0.1,0.7,0.1,1C776.8,584.1,776.8,583.7,776.7,583.4z
				 M776,574.4L776,574.4C776,574.5,776,574.5,776,574.4c0,0.5,0,0.9,0.1,1.3c0.1-0.6,0.1-1.7,0.2-2.3c0-0.1,0-0.3,0.1-0.4
				C776.2,573.5,776.1,574,776,574.4z M762.3,482.8c0.9,1.4,1.7,2.9,2.5,4.4C764,485.7,763.2,484.2,762.3,482.8z M642.2,574.8
				c-0.3-0.4-0.6-0.9-0.9-1.3C641.6,573.9,641.9,574.4,642.2,574.8c0.3,0.4,0.6,0.8,0.9,1.3C642.8,575.6,642.5,575.2,642.2,574.8z
				 M658,516.9c0.8-0.2,1.6-0.3,2.4-0.5C659.6,516.6,658.7,516.7,658,516.9z M692.5,537.9c-0.5-1.6-1-3.1-1.7-4.5
				C691.4,534.8,692,536.3,692.5,537.9c0.2,0.5,0.3,1.1,0.5,1.6C692.8,539,692.7,538.4,692.5,537.9z M692.3,564.6
				c-0.4,1.1-0.8,2.1-1.2,3.1C691.5,566.7,691.9,565.6,692.3,564.6c0.4-1.1,0.7-2.2,1-3.3C693,562.4,692.6,563.5,692.3,564.6z
				 M632.9,436.8c-0.3,0.1-0.5,0.2-0.7,0.2C632.4,437,632.6,436.9,632.9,436.8c0.5-0.2,1-0.3,1.6-0.5
				C633.9,436.5,633.4,436.7,632.9,436.8z M583.5,468.5c-0.4,0.5-0.8,0.9-1.2,1.4C582.7,469.4,583.1,469,583.5,468.5
				c1.3-1.4,2.5-2.7,3.9-4C586,465.8,584.7,467.1,583.5,468.5z M642.2,574.8c-0.3-0.4-0.6-0.9-0.9-1.3
				C641.6,573.9,641.9,574.4,642.2,574.8c0.3,0.4,0.6,0.8,0.9,1.3C642.8,575.6,642.5,575.2,642.2,574.8z M658,516.9
				c0.8-0.2,1.6-0.3,2.4-0.5C659.6,516.6,658.7,516.7,658,516.9z M692.5,537.9c-0.5-1.6-1-3.1-1.7-4.5
				C691.4,534.8,692,536.3,692.5,537.9c0.2,0.5,0.3,1.1,0.5,1.6C692.8,539,692.7,538.4,692.5,537.9z M692.3,564.6
				c-0.4,1.1-0.8,2.1-1.2,3.1C691.5,566.7,691.9,565.6,692.3,564.6c0.4-1.1,0.7-2.2,1-3.3C693,562.4,692.6,563.5,692.3,564.6z"/>
			<path class="st2" d="M776.7,583.4c0-0.3-0.1-0.6-0.1-0.9C776.7,582.8,776.7,583.1,776.7,583.4c0,0.3,0.1,0.7,0.1,1
				C776.8,584.1,776.8,583.7,776.7,583.4z M815.5,658.9c1.4,1.3,2.9,2.5,4.3,3.7C818.4,661.4,816.9,660.1,815.5,658.9z M985.8,524.7
				c-0.4,0.2-0.8,0.4-1.2,0.5c0.5-0.1,1-0.2,1.5-0.3C985.9,524.9,985.8,524.8,985.8,524.7z M982.6,661.2c0.4-0.3,0.8-0.8,1-1.2
				C983.2,660.5,982.8,661,982.6,661.2z M998.4,556.1l-0.1,4.2l0.1-2.5L998.4,556.1z M986.3,432.9l-0.1,2.6l-0.5,17.2l1.1-15.2
				C987,435.9,986.8,434.3,986.3,432.9z M972.3,505.8c-0.2,0.1-0.3,0.2-0.5,0.3C972,506,972.1,505.9,972.3,505.8
				c0.2-0.1,0.4-0.3,0.6-0.5C972.7,505.5,972.5,505.6,972.3,505.8z M971,506.3c0.3-0.1,0.5-0.1,0.8-0.3
				C971.5,506.2,971.3,506.3,971,506.3z M949.8,501.5c-4.2-0.5-8.3-0.9-12.4-1.1C941.5,500.6,945.6,500.9,949.8,501.5
				c3.1,0.4,6.2,1,9.2,1.7C956,502.4,952.9,501.8,949.8,501.5z M908.5,503.3c1.9-0.6,3.9-1.1,5.9-1.5
				C912.4,502.2,910.4,502.7,908.5,503.3z M886.2,530.7l-2.1,51.8L886.2,530.7c0-0.1,0-0.1,0-0.2
				C886.2,530.5,886.2,530.6,886.2,530.7z M783.9,516.3c0,0.1,0,0.2-0.1,0.2C783.8,516.5,783.8,516.4,783.9,516.3L783.9,516.3
				c0.2-0.6,0.4-1.2,0.6-1.8C784.3,515.1,784,515.7,783.9,516.3z M783.7,516.8c-0.1,0.2-0.1,0.4-0.2,0.6
				C783.6,517.2,783.7,517,783.7,516.8c0-0.1,0.1-0.2,0.1-0.2C783.8,516.6,783.7,516.7,783.7,516.8z M780.9,526.3
				c0.1-0.6,0.3-1.1,0.4-1.6C781.2,525.3,781.1,525.8,780.9,526.3z M778.4,534.3c0.1,0.8,0.1,1.7,0.2,2.5h0c0,0,0,0,0,0
				C778.5,536,778.5,535.1,778.4,534.3z M778.6,536.8L778.6,536.8C778.6,536.8,778.6,536.8,778.6,536.8
				C778.6,536.8,778.6,536.8,778.6,536.8z M775.6,515.9L775.6,515.9L775.6,515.9c0,0.2,0.1,0.4,0.1,0.6
				C775.7,516.3,775.6,516.1,775.6,515.9z"/>
			<path class="st2" d="M1096.2,428.1c-82.4-3.8-82.4-3.8-82.7-3.8c-3,0-5.9,1.1-8.1,3.2c-2.3,2.2-3.7,5.2-3.8,8.4l-3.3,120v0.2
				l-0.1,4.2l0.1-2.5l3.3-59.9l6.2,0.2l1.7-62c0-1,0.5-2,1.2-2.8c0.7-0.7,1.7-1,2.7-1c0.1,0,82.3,3.8,82.3,3.8
				c2.1,0.1,3.8,1.9,3.7,4.1l-2.6,61.3h8l2.6-60.9C1107.8,434,1102.7,428.5,1096.2,428.1z"/>
			<path class="st2" d="M1229.3,503.7c0.2-0.5,0.4-1,0.6-1.5C1229.8,502.7,1229.6,503.2,1229.3,503.7z M1430,610.5
				c-0.1,0.1-0.1,0.3-0.2,0.4C1429.8,610.8,1429.9,610.7,1430,610.5c0.3-0.4,0.5-0.9,0.8-1.3C1430.5,609.6,1430.2,610.1,1430,610.5z
				 M1430,610.5c-0.1,0.1-0.1,0.3-0.2,0.4C1429.8,610.8,1429.9,610.7,1430,610.5c0.3-0.4,0.5-0.9,0.8-1.3
				C1430.5,609.6,1430.2,610.1,1430,610.5z"/>
			<path class="st2" d="M1837.5,423.7c-4.3,2.4-133.1-14.1-130.4-1.9c0,0-19.5,54.3-19.5,54.3l-19.1-51.6
				c-8.9,1.1-100.6,12.6-106.3,13.3c0.8-10.6,2-25.5,3.3-36.1l-132.7,0c-0.5,20.1-1.1,48-1.5,68.1c-45.6-62-152.8-60.4-195.2,5.3
				c-0.5-19.2-1.1-46.2-1.5-65.4l-119.6-3.5l-3.3,95.3H1097l-2.4,58.6h30.4c0,0,0.3-125.9,0.3-125.9c0-2.1,1.8-3.9,3.9-3.9
				c0,0,78.8,2.1,78.8,2.1c2.1,0.1,3.8,1.7,3.8,3.8c1,43.1,2.3,99.8,3.4,142.9c0.5,23,1.6,69.8,2.2,92.9c0.1,2.1-1.6,3.9-3.7,4
				c0,0-86.4,4.1-86.5,4.1c-1,0-2-0.4-2.7-1.1c-0.8-0.7-1.2-1.7-1.2-2.8l-0.6-69h-32.1l-2.3,71.8c-0.1,2.1-1.8,3.8-3.9,3.8H1007
				c-2.1,0-4-1.9-3.9-4c0,0,4.9-180.6,4.9-180.6l-6.2-0.2l-3.3,59.9l-0.1,2.5c0.2-1.1-0.3-33.9-0.3-36.3c-1.1-7.3-5.7-9.3-13.9-6.8
				c0.7-26.8,2.1-79.1,2.8-105.2c-78.8-37.7-176.4-8.1-214.8,71.8c-41.3-78.4-165.5-79-208.8-1.4c-41.8-91.7-182.6-98.5-235.4-12.9
				c0.8-11,2.7-37.3,3.5-47.9c-51.4-34.1-125.2-34.3-176.3-0.5C91.4,462.7,63,552.8,90.8,623.3c24.6,65,96.2,99.3,163.6,85.1
				c37.2-6.4,74.5-24.1,96.3-55.4c-0.1-5.8-0.3-18.7-0.4-24.6c50.7,61.9,153.6,53,191.3-18.2c43.6,97.5,184,106.8,239,14.8
				c24.3,54.1,85.9,80.3,143.4,68.3c21.9-4.4,54.6-13.6,68.7-32.1l-2.2,39.1l114.4,1.4l-1.2-86.5h10.9l0.6,61
				c-0.1,6.3,5.6,11.9,11.9,11.8c0.2,0,0.2,0,86.9-4.2c6.5-0.3,11.5-5.7,11.3-12.2l-0.9-36.6c51.5,71,165.3,72.1,216.8,0.7
				l-1.2,54.4l165.3-13l13.7-0.4l-0.3,12.2h116.6l-2.6-107.6L1837.5,423.7z M327.1,644c-0.1,0.6-0.3,1.3-0.6,1.8c0,0,0,0,0,0
				c-18,22.6-48.1,34.4-76.1,39.6c-95.9,19.5-166.5-64-142.3-156.1c13.3-61.1,67-111.2,131.3-109.7c15.5,0,59.9,3,67.4,17.3
				c0,0-4.8,65.9-4.8,65.9c-0.1,1.2-0.8,2.3-1.8,3c-1,0.7-2.3,0.8-3.5,0.4c-6.1-2.3-12.5-3.9-19-4.7c-29.5-4.9-64.1,2.6-76.8,32.2
				c-9,20.1-6.5,51.8,15.1,63.3c13.2,6.8,37.3,4.8,41.1-12.4c-62.8,2.2-42,12.6-43-53.9c0.1-2,1.7-3.7,3.8-3.7
				c21.2-0.7,41-1.2,61.4-1.7c10.7-0.3,21.5-0.6,32.2-1c4.2,0.5,9.8-2.1,13,1.3c2.3,27.4,1.4,76.3,2.5,103.9l0,0
				C326.8,629.7,327.1,643.6,327.1,644z M549.1,534.5c-1.5,9.7-1,19.7-0.7,29.5c-9.4,78.8-95.1,123.5-164.2,82.9
				c-71.8-40.7-70.2-151-1.6-194.2C451.1,410.6,544.7,451.4,549.1,534.5z M995.5,609.3c-2,37.6,7.6,39.2-19.3,56.2v0
				c-56.1,34.9-141.1,31.2-179.3-27.9c0,0,0,0,0,0c-5.2-7.6-9.4-15.8-12.8-24.4c-4.8-12.3-7.5-25.5-8.2-38.7
				c-3.1,14.1-8.5,27.6-16.3,39.7c0,0,0,0,0,0c-0.2,0.2-0.3,0.5-0.4,0.6c-0.3,0.4-0.6,1-0.9,1.4c-1.9,2.8-3.8,5.5-5.9,8.1
				c0,0,0,0,0,0c0,0,0,0,0,0c-44.8,59-142.3,53.4-181.4-9c0,0,0,0,0,0c-2-3-3.8-6.2-5.5-9.4c-21.1-39.2-16.9-89.8,8.8-125.9
				c0,0,0,0,0,0C611,422.9,700,417,747.1,463.4v0c5.8,5.8,10.9,12.3,15.2,19.4c0,0,0,0,0,0c9.9,16.3,15.1,35.1,16.3,54
				c2.3-12.3,6.1-24.4,11.2-35.9c1.3-2.8,2.6-5.7,4.1-8.5c33.5-67.5,116.2-91.3,183.1-59.2c4.9-1.3-3.9,68.2-2.9,69.6
				c-0.1,2.5-2.9,4.3-5.3,3.4c-25.1-8.3-55.9-9.9-78.4,5.9c-21.8,15.2-28.6,47.4-16.4,70.8c7.7,15.3,25,21.6,44,16
				c8.4-2.5,10.9-13.3,11.2-16.5c0,0-40.8,2.5-40.8,2.5c-2.1,0-3-0.8-2.9-2.9c0,0,0.7-51.3,0.7-51.3c0-1,0.5-1.9,1.2-2.6
				c16.3-3.6,59.5,0.3,59.5-0.6c7.7-0.6,27,2.2,36.9-1.9v-0.1c3.2-0.9,6.6-3.1,9-5.3C995.2,518,995.6,572,995.5,609.3z
				 M1446.9,548.4c-0.1,8.3-1,16.6-2.6,24.6c-34.1,147.2-242.2,107.9-222.9-41c0.1-0.9,0.3-1.8,0.4-2.7c2.5-14,7.4-27.6,14.5-39.9
				c2.7-4.7,5.7-9.1,9-13.4c43.1-61.4,148.6-56.9,185.6,7.8C1442.5,503.1,1447.3,526,1446.9,548.4z M1606.2,632.1c0,0-3,32.3-3,32.3
				c-0.2,1.9-1.7,3.4-3.6,3.5c-3-1.1-146.1,13.9-148.3,10.3c-2.6-45,2.3-107.9,2.1-153.6c0.6-23.8,1.6-71.9,2.2-95.8
				c-3.9-8.5,91.9-1.8,93.6-3.8c7.1,1.2,2.6,9,2.9,16.8c-1.6,19-9.7,121-11.4,141.6C1625,587.5,1611.2,564.4,1606.2,632.1z
				 M1551.2,573.8c1.6-19.5,7.8-96.9,9.3-114.8c12.3,25,44.1,89.5,56.6,114.8H1551.2z M1724,678.2c-0.7,0.8-1.7,1.2-2.8,1.2
				c0,0-88.7,0-88.7,0c-2.1,0-4-1.9-3.9-4c0.5-23.2,1.5-72.5,2-96c-0.4-0.9-9.5-19.1-9.5-19.2c0,0-47.5-96.2-47.5-96.3
				c0,0-2.9-5.9-2.9-5.9c-0.1-0.2-2.8-5.7-2.9-5.9c-2.1-4.8,3.6-6.1,7.2-6.1c1.9,1.2,89.8-14.8,87.9-8c5.4,21.2,18.6,75,24.1,96.8
				c7.8-28.8,18.5-68.1,26.3-96.9c0.6-1.6,2.2-2.6,3.9-2.4c0,0,20,1.4,20,1.4c1,0.8,67.9,2.9,66,6.5c0.6,1.2,0.6,2.7-0.1,3.8
				l-80.5,131.6l2.4,96.5C1725.2,676.4,1724.8,677.4,1724,678.2z"/>
			<path class="st2" d="M1663.1,438l8,32.7l0.6,1.5L1663.1,438z"/>
		</g>
		<g>
			<path class="st4" d="M327.1,643.6c0,0.8-0.2,1.6-0.6,2.2c0,0,0,0,0,0c-18,22.6-48.1,34.5-76.1,39.6
				c-95.9,19.5-166.5-64-142.3-156.1c13.3-61.1,67-111.2,131.3-109.7c15.5,0,59.9,3,67.4,17.3c0,0-4.8,65.9-4.8,65.9
				c-0.1,1.2-0.8,2.3-1.8,3c-1,0.7-2.3,0.8-3.5,0.4c-6.1-2.3-12.5-3.9-19-4.7c-109-18.9-100.4,128.9-24.8,93.3l0.1-2.2
				c2.3-2.6,4-5.5,4.1-8c-62.8,2.2-42,12.6-43-53.9c0.1-2,1.7-3.7,3.8-3.7c23.3-0.8,45-1.3,67.5-1.9c8.9-0.3,17.8-0.5,26.7-0.9
				c4.3,0.5,12.3-2.7,13,3.5C325.6,560.8,326.5,610.7,327.1,643.6z"/>
			<path class="st4" d="M222,599.3c-1.2-0.3-2.4-0.7-3.6-1.2C219.5,598.6,220.7,599,222,599.3z"/>
			<path class="st4" d="M252.9,592.6l-0.1,2.2c-2.6,1.8-5.5,3.1-8.5,3.9C247,597.8,250.3,595.4,252.9,592.6z"/>
			<polygon class="st4" points="327.1,643.6 326.8,629.3 326.8,629.3 			"/>
			<path class="st4" d="M543.6,506.6c0-0.1-0.1-0.3-0.1-0.4c0.2,0.4,0.3,0.9,0.4,1.3C543.8,507.2,543.7,506.9,543.6,506.6z
				 M537.5,600.5c0.8-1.6,1.5-3.2,2.2-4.8C539,597.3,538.3,598.9,537.5,600.5z"/>
			<path class="st4" d="M549.1,534.5c-4.5-83.2-98.1-123.9-166.5-81.9c-68.5,43.3-70.2,153.5,1.7,194.2
				c69.1,40.6,154.8-4.1,164.2-82.9C548.1,554.2,547.6,544.2,549.1,534.5z M470.6,565.8c-5.4,19.2-29,30.9-46.7,20.7
				c-16.8-10-22.2-33.8-16.1-51.5c4.8-13.8,17.5-23.1,32.4-22.8C466.7,511.8,478.6,543.9,470.6,565.8z"/>
			<path class="st2" d="M470.8,536.8c-17.7-48.6-78.7-18.8-63.4,27.2C424.6,615.8,486.4,583.2,470.8,536.8z M444.8,557
				c-8.8,20.2-20-18.4-4.5-17.6C446.5,541.3,446.4,551.8,444.8,557z"/>
			<path class="st4" d="M776,574.4c0.1-0.5,0.2-1,0.3-1.4C776.2,573.5,776.1,574,776,574.4z M770.6,499.7c0-0.1-0.1-0.2-0.1-0.3
				c0.2,0.5,0.4,1.1,0.6,1.6C771,500.5,770.8,500.1,770.6,499.7z M762.3,482.8c0.9,1.4,1.7,2.9,2.5,4.4
				C764,485.7,763.2,484.2,762.3,482.8z M759.3,614.9c0,0-0.1,0.1-0.1,0.2C759.2,615,759.2,614.9,759.3,614.9
				C759.3,614.8,759.3,614.9,759.3,614.9z M758.3,616.3c-0.3,0.5-0.6,1-1,1.4C757.7,617.2,758,616.7,758.3,616.3
				C758.3,616.2,758.4,616.2,758.3,616.3C758.4,616.2,758.3,616.2,758.3,616.3z M752.4,624.3C752.4,624.3,752.4,624.3,752.4,624.3
				c0.7-0.8,1.3-1.7,1.9-2.5C753.8,622.6,753.1,623.5,752.4,624.3z M752.4,624.4c-0.2,0.2-0.3,0.4-0.5,0.6
				C752.1,624.8,752.2,624.6,752.4,624.4C752.4,624.4,752.4,624.4,752.4,624.4z M751.8,625.1c0,0.1-0.2,0.2-0.3,0.4
				c0.2-0.3,0.3-0.3,0.5-0.5L751.8,625.1z M714.7,654.6c2.8-1.4,5.6-2.8,8.2-4.4C720.3,651.8,717.5,653.3,714.7,654.6z M642.2,574.8
				c-0.3-0.4-0.6-0.9-0.9-1.3c0.6,0.9,1.2,1.8,1.8,2.6C642.8,575.6,642.5,575.2,642.2,574.8z M658,516.9c0.8-0.2,1.6-0.3,2.4-0.5
				C659.6,516.6,658.7,516.7,658,516.9z M692.5,537.9c-0.5-1.6-1-3.1-1.7-4.5c0.9,1.9,1.6,4,2.2,6.1
				C692.8,539,692.7,538.4,692.5,537.9z M692.3,564.6c-0.4,1.1-0.8,2.1-1.2,3.1c0.9-2,1.6-4.2,2.2-6.4
				C693,562.4,692.6,563.5,692.3,564.6z M632.9,436.8c-0.3,0.1-0.5,0.2-0.7,0.2c0.8-0.2,1.5-0.5,2.3-0.7
				C633.9,436.5,633.4,436.7,632.9,436.8z M583.5,468.5c-0.4,0.5-0.8,0.9-1.2,1.4c1.6-1.9,3.3-3.7,5.1-5.4
				C586,465.8,584.7,467.1,583.5,468.5z M558,512.9c-0.1,0.4-0.3,0.8-0.4,1.2c0.2-0.5,0.3-0.9,0.4-1.4
				C558,512.8,558,512.8,558,512.9z M561.7,502.8c-0.1,0.2-0.1,0.4-0.2,0.5c0.1-0.4,0.3-0.7,0.5-1.1
				C561.9,502.4,561.8,502.6,561.7,502.8z M565.5,494.7c-0.3,0.5-0.5,1-0.7,1.4c0.4-0.8,0.8-1.6,1.2-2.4
				C565.8,494,565.6,494.3,565.5,494.7z M565.5,606C565.5,606,565.5,606,565.5,606c0,0.1,0.1,0.2,0.1,0.3
				C565.6,606.2,565.6,606.1,565.5,606z M561.3,597c-0.3-0.6-0.6-1.3-0.8-2c0.3,0.8,0.6,1.6,1,2.4
				C561.4,597.3,561.3,597.2,561.3,597z"/>
			<path class="st2" d="M694.5,549.5c-0.5-44.5-59.5-44-59.8,0C634.4,598.7,695,598,694.5,549.5z M670.1,557
				c-7.7,17.5-16.6-8.8-9.7-15.7C669.5,533.7,673.1,550.5,670.1,557z"/>
			<path class="st4" d="M776.9,584.4c-0.1-0.6-0.2-1.2-0.2-1.9C776.7,583.1,776.8,583.8,776.9,584.4z"/>
			<path class="st4" d="M778.6,536.8C778.6,536.8,778.6,536.8,778.6,536.8L778.6,536.8C778.6,536.8,778.6,536.8,778.6,536.8z"/>
			<path class="st4" d="M781.4,524.7c-0.2,0.5-0.3,1.1-0.4,1.6C781.1,525.8,781.2,525.3,781.4,524.7z"/>
			<path class="st4" d="M783.8,516.5c-0.1,0.3-0.2,0.6-0.3,0.9C783.6,517.1,783.7,516.8,783.8,516.5z"/>
			<path class="st4" d="M819.9,662.5c-1.5-1.2-2.9-2.4-4.3-3.7C816.9,660.1,818.4,661.4,819.9,662.5z"/>
			<path class="st4" d="M980.4,658c-0.1,0-0.1,0.1-0.2,0.1v0C980.3,658.1,980.3,658,980.4,658z"/>
			<path class="st4" d="M992.8,520.2c-1.8,1.8-4.7,3.5-7.1,4.6c0.1,0.1,0.2,0.1,0.3,0.2c-10.6,4.7-30.5,2.1-39.2,2.5
				c-0.1,0.9-43.1-3-59.5,0.6c-0.7,0.7-1.1,1.6-1.2,2.6c0,0-2.1,51.8-2.1,51.8c-0.1,2.1,1.7,4.1,3.8,4.1c0,0,41.2-2.8,41.2-2.8
				c-1.4,2.4-2.9,12-13.3,15.1c-16,4.8-34.1-0.6-41.8-15.9c-12.2-23.4-5.4-55.6,16.4-70.8c22.5-15.9,53.3-14.2,78.4-5.9
				c2.3,1,5.1-0.9,5.2-3.4c0,0,4.8-65.9,4.8-65.9c-1-6.3-11.7-7.7-17.2-10.4c-65.3-20.6-136.9,3.4-167.9,66
				c-1.4,2.8-2.8,5.6-4.1,8.5c-5.1,11.5-8.9,23.6-11.2,35.9h0c0,0,0,0,0,0c0,0,0,0,0,0c-1.1-19-6.4-37.8-16.3-54.1c0,0,0,0,0,0
				c-38.8-65.7-146.7-67.4-188-2.7c0,0,0,0,0,0c-25.7,36.1-29.9,86.7-8.8,125.9c0,0,0,0,0,0c1.7,3.2,3.5,6.3,5.5,9.3c0,0,0,0,0,0
				c39.1,62.4,136.6,68,181.4,9c0,0,0,0,0,0c0,0,0,0,0,0c0,0,0,0,0,0c0,0,0,0,0,0c1.4-1.7,2.7-3.4,3.9-5.2c0.7-0.9,1.3-1.9,2-2.8
				c0.5-0.7,0.9-1.3,1.3-2c0,0,0,0,0,0c8.1-12.5,13.6-26.6,16.6-41.2c-0.2,22.9,8.1,45.7,20.6,64.6c0,0,0,0,0,0
				c38.3,59.1,123.3,62.7,179.3,27.9v0c13.5-7.8,16.8-12.1,19.2-21.8C995.7,627.1,995.9,513.1,992.8,520.2z M693.2,561.3
				c-3.3,16.3-19.8,28.6-36.3,24.2c-19.6-5.8-26.2-31.5-20.1-49.2C655.3,496,703.6,520.4,693.2,561.3z M980.2,658.1L980.2,658.1
				c0.1-0.1,0.1-0.1,0.2-0.1C980.3,658.1,980.3,658.1,980.2,658.1z M982.6,661.2c0.2-0.2,0.6-0.6,1-1.2
				C983.4,660.4,983.1,660.9,982.6,661.2z"/>
			<path class="st4" d="M784.5,514.5c-0.2,0.7-0.4,1.4-0.7,2C784,515.8,784.2,515.2,784.5,514.5z"/>
			<path class="st4" d="M886.2,530.5c0,0.1-2.1,51.8-2.1,52C884.2,582.2,886.2,530.7,886.2,530.5z"/>
			<path class="st4" d="M914.4,501.8c-2,0.4-4,0.9-5.9,1.5C910.4,502.7,912.4,502.2,914.4,501.8z"/>
			<path class="st4" d="M959,503.2c-7-1.7-14.4-2.4-21.6-2.8C944.6,500.8,952,501.4,959,503.2z"/>
			<path class="st4" d="M971.8,506.1c-0.3,0.1-0.5,0.2-0.8,0.3C971.3,506.3,971.5,506.2,971.8,506.1z"/>
			<path class="st4" d="M972.9,505.3c-0.3,0.3-0.7,0.6-1.1,0.7C972.2,505.9,972.6,505.6,972.9,505.3z"/>
			<path class="st4" d="M982.6,661.2c0.2-0.2,0.6-0.6,1-1.2C983.4,660.4,983.1,660.9,982.6,661.2z"/>
			<path class="st4" d="M986,524.9c-0.5,0.1-1,0.2-1.5,0.3c0.4-0.2,0.8-0.3,1.2-0.5C985.8,524.8,985.9,524.9,986,524.9z"/>
			<path class="st4" d="M776.3,573c-0.1,0.5-0.2,1-0.3,1.5C776,574,776.2,573.5,776.3,573z"/>
			<path class="st4" d="M1217.3,671.9c5.1,8-88.9,6.2-90.2,8.1c-2.1,0-3.9-1.8-3.9-3.9c0,0-0.6-69-0.6-69h-32.1
				c0,0-2.3,71.8-2.3,71.8c-0.1,2.1-1.8,3.8-3.9,3.8c0,0-77.3,0-77.3,0c-2.1,0-4-1.9-3.9-4c1.4-44.8,5.3-200.7,6.6-242.6
				c0-2,1.8-3.8,3.9-3.8c0.1,0,82.3,3.8,82.3,3.8c2.1,0.1,3.8,1.9,3.7,4.1c-1.3,29.9-3.8,90-5,119.8h30.4l0.3-125.9
				c0-2.1,1.8-3.9,3.9-3.9c0,0,78.8,2.1,78.8,2.1c2.1,0.1,3.8,1.7,3.8,3.8C1213.5,511.9,1215.5,596.1,1217.3,671.9z"/>
			<path class="st4" d="M1229.3,503.7c0.2-0.5,0.4-1,0.6-1.5C1229.8,502.7,1229.6,503.2,1229.3,503.7z M1430,610.5
				c-0.1,0.1-0.1,0.3-0.2,0.4c0.4-0.6,0.7-1.2,1-1.7C1430.5,609.6,1430.2,610.1,1430,610.5z"/>
			<path class="st4" d="M1446.9,543.6c-0.3-20.8-5.3-41.9-16-59.9c-37-64.6-142.5-69.1-185.6-7.8c-3.3,4.3-6.3,8.8-9,13.4
				c-7.1,12.4-12,25.9-14.5,39.9c-0.2,0.9-0.3,1.8-0.4,2.7c-19.3,149,188.8,188.2,222.9,41C1446.3,563.4,1447.1,553.5,1446.9,543.6z
				 M1360.3,564.6c-4.7,16.9-25.3,27.5-41,18.6c-15.1-9.1-19.9-30.8-14.4-46.9c4.3-12.3,15.4-20.5,28.8-20.3
				C1357.5,515.9,1367.4,545.1,1360.3,564.6z"/>
			<path class="st2" d="M1360.6,537.9c-16.1-43.8-69.9-15.9-55.9,25C1320.2,609.8,1374.6,579.2,1360.6,537.9z M1338.2,557
				c-8.8,20.2-20-18.4-4.5-17.6C1339.9,541.3,1339.8,551.8,1338.2,557z"/>
			<path class="st4" d="M1610.4,587.8c-1.9,18.6-5.4,58.3-7.2,76.6c-0.2,1.9-1.7,3.4-3.6,3.5l-145.3,11.4c-2.2,0.2-4.3-1.7-4.2-4
				c0.6-25.3,1.7-76.4,2.3-101.4c0.6-23.9,1.6-72.1,2.1-96c0,0,1.1-49,1.1-49c0-2.1,1.8-3.8,3.9-3.8c1.6,0.4,90-0.7,91.4,0.4
				c4.3,3.4,1.4,4.9,1.4,13.6l-1.6,0.2l1.3,2.7c-1.5,19.3-9.7,120.8-11.4,141.6h65.8C1608.7,583.5,1610.6,585.6,1610.4,587.8z"/>
			<path class="st4" d="M1552.3,439c-0.1,0.9-0.2,1.9-0.2,2.9l-1.3-2.7L1552.3,439z"/>
			<path class="st4" d="M1803.4,443.4c-0.6-1.2-1.8-2-3.2-2.1c-15-1-69.2-5-83.1-5.9c-1.6,0-3,1-3.6,2.4l-8.7,31.9
				c-4.3,16.1-13.2,48.8-17.6,64.9c-5.6-22.2-18.8-75.2-24.1-96.8c-0.6-1.7-2.4-2.7-4.1-2.5c0,0-83.8,10.5-83.8,10.5
				s-4.2,0.5-4.2,0.5c-6.3,1.2-1.7,8.2-0.1,11.5c9.2,18.6,51.3,103.9,59.8,121.3c0,0.1-1.2,54.2-1.1,54.2c0,0-0.9,41.8-0.9,41.8
				c-0.1,2.1,1.8,4,3.9,4c0,0,88.7,0,88.7,0c1.1,0,2.1-0.4,2.8-1.2s1.1-1.8,1.1-2.8l-2.4-96.5l80.5-131.6
				C1804,446.1,1804,444.6,1803.4,443.4z M1757.7,442.2L1757.7,442.2L1757.7,442.2C1757.7,442.2,1757.7,442.2,1757.7,442.2
				C1757.7,442.2,1757.7,442.2,1757.7,442.2z"/>
			<polygon class="st4" points="1671.7,472.3 1671.1,470.7 1663.1,438 			"/>
			<path class="st4" d="M1757.7,442.2C1757.7,442.2,1757.7,442.2,1757.7,442.2L1757.7,442.2L1757.7,442.2
				C1757.7,442.2,1757.7,442.2,1757.7,442.2z"/>
		</g>
	</g>
	<g>
		<path class="st5" d="M991.1,814c-0.4-1.5-0.9-3.6-1.5-6.4c-0.6-2.8-1.3-5.9-2-9.2s-1.4-6.9-2-10.5c-0.7-3.7-1.3-7.3-1.8-10.7
			c-0.6-3.5-1-6.7-1.3-9.6c-0.3-2.9-0.5-5.3-0.5-7.2c0-0.8,0.1-2.3,0.3-4.3c0.2-2,0.5-4.2,0.8-6.4c0.4-2.2,0.7-4.3,1-6.3
			c0.3-2,0.6-3.3,0.9-4c0.3-0.1,0.8-0.1,1.5-0.1c0.7,0,1.4,0,2.2-0.1c0.8-0.1,1.5-0.2,2.2-0.2c0.7,0,1.2-0.1,1.5-0.1
			c4.5,0,8.7,0.9,12.7,2.7c4,1.8,7.8,4,11.4,6.7c3.6,2.7,7.2,5.7,10.6,9.1c3.4,3.4,6.9,6.6,10.4,9.8c3.5,3.2,7,6,10.7,8.6
			c3.6,2.6,7.5,4.5,11.6,5.8c0-0.5,0-1.2,0.1-2.2c0-1,0.1-2,0.1-3.1c0-1.1,0-2.2,0.1-3.1c0-1,0.1-1.7,0.1-2.2
			c0-5.9-0.4-11.6-1.1-17.2c-0.7-5.6-1.6-11.2-2.5-16.8c-0.9-5.6-1.8-11.2-2.5-16.8c-0.7-5.6-1.1-11.4-1.1-17.4c0.7,0,1.5,0,2.4,0.1
			c1,0,2,0.2,3,0.4c1,0.2,2,0.6,2.8,1.1c0.8,0.5,1.4,1.3,1.7,2.3c0.4,6.7,1.2,13.4,2.5,20.2c1.3,6.7,2.7,13.5,4,20.2
			c1.4,6.7,2.6,13.5,3.7,20.2c1.1,6.7,1.6,13.4,1.6,20c0,1.2,0,2.5-0.1,3.9c0,1.4-0.2,2.7-0.6,4c-0.3,1.3-0.9,2.3-1.6,3.1
			c-0.7,0.8-1.9,1.3-3.3,1.3c-4.8,0-9.3-1.1-13.4-3.3c-4.1-2.2-8.1-4.9-11.9-8.2c-3.9-3.3-7.6-6.8-11.3-10.7
			c-3.7-3.9-7.4-7.5-11.3-10.7c-3.9-3.3-7.9-6-12-8.2c-4.1-2.2-8.6-3.4-13.3-3.4c0,5.2,0.4,10.2,1.1,15c0.7,4.8,1.6,9.6,2.4,14.3
			c0.9,4.7,1.7,9.5,2.4,14.2c0.7,4.7,1.1,9.5,1.1,14.3c0,1.8-0.6,3-1.9,3.6c-1.3,0.7-2.6,1-4.1,1c-1.2,0-2.4-0.1-3.4-0.3
			C992.5,816.6,991.7,815.7,991.1,814z"/>
		<path class="st5" d="M1077.8,721.4c3.6-1.9,7-3.2,10.3-4.1c3.2-0.9,6.4-1.5,9.6-1.8c3.2-0.3,6.5-0.5,9.8-0.5c3.3,0,6.9,0,10.8,0
			c0.7,0,2,0,3.8,0.1c1.8,0,3.8,0.1,5.9,0.1s4,0,5.8,0c1.8,0,3,0,3.8,0c1,0.4,1.8,1,2.4,2c0.6,0.9,1,1.9,1.3,2.9
			c0.3,1,0.5,2.1,0.6,3.1c0.1,1.1,0.1,1.9,0.1,2.4h-46.1v30h50c0,3.2-1,5.7-2.9,7.5s-4.4,3.2-7.3,4.3c-2.9,1-6.2,1.7-9.8,2
			c-3.6,0.3-7.1,0.5-10.3,0.4c-3.3,0-6.1-0.2-8.7-0.3c-2.5-0.2-4.2-0.3-5-0.3v2.9c0,3.9,0.9,7.6,2.8,11.1c1.9,3.5,3.9,6.9,6.2,10.1
			c2.3,3.3,4.4,6.5,6.3,9.6c1.9,3.2,2.9,6.4,2.9,9.6c0,2-0.4,3.8-1.3,5.4c-0.8,1.5-2.4,2.3-4.6,2.3c-2.3,0-4.6-1.2-6.9-3.6
			c-2.3-2.4-4.5-5.7-6.6-9.7c-2.1-4-4.2-8.7-6.1-14c-1.9-5.3-3.7-10.7-5.4-16.5c-1.7-5.7-3.3-11.4-4.6-17
			c-1.3-5.6-2.5-10.9-3.4-15.8c-0.9-4.9-1.7-9.2-2.2-12.9c-0.6-3.7-0.8-6.4-0.8-8.1V721.4z"/>
		<path class="st5" d="M1206.5,736.2c-0.4-1.3-1.1-2.2-2.2-2.7c-1.1-0.5-2.2-0.7-3.5-0.8c-1.3,0-2.5,0-3.7,0.2
			c-1.2,0.2-2.1,0.3-2.8,0.3c-1.6-0.1-4.3-0.3-8.2-0.6s-8.1-0.6-12.6-0.9c-4.5-0.3-8.7-0.6-12.6-1c-3.9-0.3-6.7-0.5-8.2-0.6
			c0-0.2,0-0.7-0.1-1.4c-0.1-0.7-0.1-1.3-0.1-1.5c0-1.3,0.1-2.5,0.3-3.5c0.2-1,1.1-1.8,2.7-2.4c8.7,0.2,17.4,0.1,25.9-0.1
			s17-0.7,25.5-1.2c8.5-0.5,17-1,25.5-1.5c8.5-0.5,17.1-0.7,25.8-0.7c0,3.5-0.8,6.1-2.5,7.7c-1.7,1.6-3.7,2.7-6.2,3.3
			c-2.5,0.6-5.2,0.8-8.2,0.7c-3-0.1-5.8,0-8.6,0.1c-2.7,0.2-5.2,0.7-7.3,1.6c-2.1,0.9-3.5,2.5-4.1,4.8c-0.1,0.6-0.2,1.6-0.3,3.2
			c-0.1,1.6-0.2,3.3-0.2,5c0,1.8-0.1,3.4-0.1,5c0,1.5-0.1,2.6-0.1,3.3c0,5.3,0.7,10.5,2,15.7c1.3,5.2,2.8,10.3,4.5,15.4
			c1.6,5.1,3.1,10.1,4.5,15.2c1.3,5.1,2,10.2,2,15.4c0,3.9-2.2,5.9-6.7,5.9c-2.7,0-5.1-1.9-7.2-5.6c-2.1-3.7-3.9-8.5-5.4-14.2
			c-1.5-5.8-2.8-12-3.8-18.8c-1-6.8-1.8-13.3-2.4-19.5c-0.6-6.2-1-11.7-1.3-16.5C1206.6,740.8,1206.5,737.7,1206.5,736.2z"/>
		<path class="st5" d="M1328.9,709.7c0-2.9,0.5-5.3,1.6-7.1c1.1-1.9,2.5-3.4,4.4-4.5c1.9-1.2,3.9-2,6.2-2.6c2.3-0.6,4.7-1,7.1-1.2
			c2.5-0.2,4.9-0.3,7.2-0.3c2.3,0,4.5,0.1,6.4,0.1c3.8,0,7.6,0.4,11.4,1.1c3.8,0.7,7.2,2,10.1,3.9c2.9,1.9,5.3,4.4,7.2,7.5
			c1.9,3.1,2.8,7,2.8,11.7c0,4.1-0.8,8.2-2.4,12.2c-1.6,4-3.7,7.9-6.3,11.6c-2.6,3.7-5.5,7-8.7,10c-3.3,3-6.5,5.6-9.7,7.7
			c-3.2,2.1-6.3,3.8-9.2,5c-2.9,1.2-5.4,1.7-7.3,1.4c-1.1,3.6-1.8,7.5-2,11.7c-0.2,4.1-0.3,8.2-0.2,12.1c0.1,4,0.2,7.7,0.4,11.3
			c0.2,3.6,0,6.7-0.5,9.2c-0.5,2.6-1.5,4.5-2.9,5.7c-1.4,1.3-3.5,1.7-6.4,1.2c-0.8-6.6-1.5-13.3-1.9-20.1c-0.4-6.8-0.8-13.5-1-20.2
			c-0.3-6.7-0.5-13.2-0.8-19.6c-0.2-6.4-0.6-12.4-1-18.2c-0.4-5.8-1-11.2-1.7-16.2C1331,718.1,1330,713.6,1328.9,709.7z
			 M1363.4,706.1c-1.4,0-3.1,0-5.2,0.1c-2,0.1-4,0.4-5.9,0.9c-1.9,0.5-3.5,1.4-4.8,2.7c-1.3,1.3-2,3-2,5.4v36.6
			c3.8,0,7.9-1,12.1-3.1c4.3-2,8.2-4.7,11.7-7.8c3.5-3.2,6.5-6.7,8.8-10.7c2.3-4,3.5-8,3.5-11.9c0-2.9-0.5-5.1-1.6-6.7
			c-1.1-1.6-2.5-2.8-4.2-3.6c-1.7-0.8-3.7-1.3-5.8-1.5C1367.9,706.2,1365.7,706.1,1363.4,706.1z"/>
		<path class="st5" d="M1399.1,761.4c0-0.8,0-1.7,0.1-2.6c0.1-0.9,0.3-1.7,0.6-2.4c0.3-0.7,0.7-1.3,1.3-1.7c0.6-0.5,1.5-0.7,2.6-0.7
			c0.9,0,2,0.7,3.1,2.2c1.2,1.4,2.3,3.3,3.6,5.4c1.2,2.2,2.4,4.6,3.6,7.2c1.2,2.6,2.2,5,3.1,7.2c0.9,2.2,1.6,4.1,2.2,5.7
			c0.6,1.6,0.9,2.4,1,2.5c1.2-3.3,2.6-6.8,4-10.6c1.5-3.8,3.3-7.4,5.5-10.7c2.2-3.3,4.8-6.1,7.8-8.3c3-2.2,6.7-3.3,11.1-3.3
			c2.2,0,4.3,0.3,6.4,1c2,0.7,3.8,1.7,5.3,3.1c1.5,1.4,2.8,3,3.7,4.8c0.9,1.9,1.4,4,1.4,6.4c0,2-0.8,3.5-2.4,4.3
			c-1.6,0.8-3.5,1.3-5.5,1.3h-1.4l-6-6c-0.2,0-0.3,0-0.4-0.1c-0.2,0-0.3,0-0.5-0.1c-0.1,0-0.3-0.1-0.5-0.1c-3.3,0-5.8,0.9-7.6,2.7
			s-3.2,4-4.1,6.7c-0.9,2.7-1.5,5.4-1.7,8.4c-0.2,2.9-0.3,5.6-0.3,8c0,1.9,0.2,3.7,0.6,5.7c0.4,1.9,0.8,3.8,1.3,5.6
			c0.5,1.8,0.9,3.7,1.3,5.6c0.4,1.9,0.6,3.9,0.6,5.9c0,3.9-2.1,5.9-6.3,5.9c-2.3,0-4.7-1.2-7.3-3.7c-2.5-2.5-5-5.6-7.5-9.4
			c-2.5-3.8-4.8-8-7-12.6c-2.2-4.6-4.2-9.1-5.9-13.5c-1.7-4.4-3-8.3-4-11.9C1399.6,765.6,1399.1,763,1399.1,761.4z"/>
		<path class="st5" d="M1470.4,791.6c0-5.8,1.3-11.1,4-16.1c2.7-5,6.3-9.3,10.7-12.8c4.4-3.6,9.4-6.4,14.9-8.4
			c5.5-2,11.1-3.1,16.8-3.1c3.2,0,6,1,8.4,3.1c2.5,2,4.5,4.5,6.2,7.5c1.7,2.9,3,6,3.8,9.3c0.9,3.3,1.3,6.1,1.3,8.5
			c0,5.2-1.3,10.3-3.8,15.1s-5.8,9.2-9.8,13c-4,3.8-8.5,6.8-13.5,9.1c-5,2.3-10.1,3.5-15.1,3.5c-4.5,0-8.2-0.8-11.3-2.3
			c-3.1-1.5-5.5-3.6-7.4-6.1c-1.9-2.6-3.2-5.6-4.1-9.1C1470.9,799.3,1470.4,795.6,1470.4,791.6z M1482.3,793c0,2.4,0.2,4.5,0.6,6.4
			c0.4,1.8,1.2,3.4,2.2,4.7c1.1,1.3,2.5,2.3,4.3,3c1.8,0.7,4,1,6.6,1c3.4,0,6.9-1,10.3-2.9c3.4-1.9,6.5-4.3,9.3-7.3
			c2.7-2.9,5-6.2,6.6-9.7c1.7-3.5,2.5-7,2.5-10.3c0-1.5-0.1-3.1-0.4-4.9c-0.3-1.8-0.7-3.4-1.4-4.9c-0.7-1.5-1.6-2.7-2.8-3.8
			c-1.2-1-2.7-1.5-4.6-1.5c-1.7,0-3.7,0.6-5.9,1.7c-2.3,1.1-4.7,2.6-7.1,4.3c-2.5,1.8-4.9,3.8-7.3,6s-4.5,4.5-6.5,6.7
			s-3.5,4.4-4.7,6.4C1482.9,790.1,1482.3,791.7,1482.3,793z"/>
		<path class="st5" d="M1509.1,864c2.7,0,5.2,0.7,7.4,2.1c2.2,1.4,4.6,2.9,7,4.5c2.5,1.6,5.1,3.1,8,4.5c2.9,1.4,6.2,2.1,10,2.1
			s7.5-0.5,11.2-1.5c3.6-1,6.9-2.5,9.8-4.5c2.9-2,5.2-4.6,7-7.8c1.8-3.2,2.7-7,2.7-11.4c0-7.3-0.6-14.8-1.7-22.6
			c-1.2-7.8-2.7-15.6-4.5-23.4c-1.8-7.8-3.8-15.3-5.9-22.7c-2.1-7.4-4-14.1-5.8-20.4c0-0.1,0-0.3-0.1-0.7c-0.1-0.4-0.1-0.6-0.1-0.7
			c0-1.9,0.7-3.1,2-3.8c1.3-0.7,2.7-1,4.2-1c0.4,0,0.9,0,1.7,0.1c0.7,0.1,1.2,0.1,1.4,0.1c2.9,7.3,5.6,14.7,8.2,22.3
			c2.6,7.6,4.8,15.3,6.8,23.1c2,7.8,3.5,15.7,4.6,23.5c1.1,7.9,1.7,15.7,1.7,23.4c0,6-1,11.5-3.1,16.5c-2.1,4.9-5,9.1-8.7,12.6
			c-3.7,3.4-8.2,6.1-13.3,8c-5.2,1.9-10.8,2.8-16.8,2.8c-4,0-8-0.4-11.9-1.3c-4-0.9-7.5-2.3-10.7-4.3c-3.2-2-5.8-4.5-7.7-7.7
			C1510.1,872.5,1509.1,868.6,1509.1,864z M1541.9,722.7c0-0.3,0-0.8,0-1.7c0-0.8,0.1-1.7,0.3-2.6c0.2-0.9,0.5-1.7,1-2.3
			c0.5-0.7,1.2-1,2.1-1c1.6,0,2.8,0.2,3.6,0.6c0.8,0.4,1.4,0.9,1.8,1.5c0.4,0.6,0.6,1.3,0.7,2.2c0.1,0.9,0.1,1.9,0.1,3
			c0,0.7,0,1.6-0.1,2.5c-0.1,0.9-0.3,1.8-0.6,2.7c-0.3,0.8-0.7,1.5-1.4,2c-0.7,0.5-1.5,0.8-2.7,0.8c-1.1,0-2-0.3-2.7-0.8
			c-0.7-0.5-1.1-1.1-1.5-1.9c-0.3-0.7-0.5-1.6-0.6-2.5C1542,724.4,1541.9,723.5,1541.9,722.7z"/>
		<path class="st5" d="M1584.2,781.2c0-5,0.6-10,1.8-15.1c1.2-5,3.1-9.5,5.8-13.5c2.7-4,6.1-7.3,10.3-9.8c4.2-2.5,9.4-3.8,15.4-3.8
			c3.4,0,6.5,0.6,9.1,1.9c2.6,1.3,4.8,2.9,6.6,5c1.8,2,3.1,4.4,4,7.2c0.9,2.7,1.3,5.6,1.3,8.6c0,4.7-1.1,9.4-3.3,13.8
			c-2.2,4.5-5.1,8.4-8.8,11.8c-3.7,3.4-7.9,6-12.6,7.7c-4.7,1.7-9.6,2.1-14.5,1.2c0.1,2.7,1,4.9,2.7,6.5c1.7,1.6,3.8,2.9,6.2,3.7
			c2.4,0.8,4.9,1.4,7.5,1.6c2.6,0.2,4.9,0.3,7,0.3c2.1,0,4.1-0.2,6-0.6c1.9-0.4,3.7-0.8,5.6-1.3c1.9-0.5,3.7-0.9,5.7-1.3
			c1.9-0.4,3.9-0.6,6.1-0.6c0.8,0,1.7,0,2.5,0.1c0.8,0.1,1.6,0.3,2.4,0.6c0.7,0.3,1.3,0.8,1.8,1.5c0.5,0.7,0.7,1.6,0.7,2.6
			c0,1.8-0.7,3.2-2,4.4c-1.3,1.2-3,2.2-5,3c-2,0.8-4.2,1.5-6.6,1.9c-2.4,0.4-4.8,0.7-7,1c-2.3,0.2-4.4,0.4-6.3,0.4
			c-1.9,0-3.3,0.1-4.3,0.1c-6,0-11.3-1-16.1-2.9c-4.7-1.9-8.7-4.6-12-8c-3.3-3.4-5.7-7.5-7.5-12.3
			C1585.1,792.4,1584.2,787,1584.2,781.2z M1599,772.1c0,3.3,0.4,5.6,1.3,7.1c0.9,1.5,3,2.2,6.5,2.2c2.4,0,4.8-0.4,7.1-1.3
			c2.3-0.9,4.4-2.1,6.4-3.7c1.9-1.6,3.4-3.4,4.5-5.6c1.1-2.1,1.7-4.5,1.7-7c0-1.4-0.1-2.8-0.3-4.3c-0.2-1.5-0.7-2.9-1.5-4.1
			c-0.7-1.3-1.7-2.3-2.9-3.1c-1.2-0.8-2.7-1.2-4.5-1.2c-2.8,0-5.3,0.6-7.6,1.9c-2.3,1.3-4.2,2.9-5.8,4.9c-1.6,2-2.8,4.2-3.6,6.7
			C1599.4,767.1,1599,769.6,1599,772.1z"/>
		<path class="st5" d="M1659.3,778c0-3.9,0.9-8,2.6-12.3c1.7-4.3,4-8.2,6.9-11.7c2.9-3.5,6.2-6.4,10-8.7c3.8-2.3,7.7-3.5,11.9-3.5
			c2.1,0,4.3,0.4,6.4,1.1c2.1,0.7,4.1,1.8,5.8,3.2c1.7,1.4,3.1,3.1,4.2,5c1.1,2,1.6,4.1,1.6,6.6c-1.7,0-3.2-0.2-4.5-0.6
			c-1.4-0.4-2.7-0.8-4-1.3c-1.3-0.5-2.6-1-3.8-1.3c-1.3-0.4-2.6-0.6-4.1-0.6c-3.8,0-6.9,1-9.3,2.9c-2.4,1.9-4.3,4.3-5.7,7.2
			c-1.4,2.9-2.4,6-2.9,9.3c-0.5,3.3-0.8,6.4-0.8,9.3c0,0.5,0,1.4,0.1,2.7c0,1.3,0.1,2.7,0.1,4.1c0,1.4,0.1,2.8,0.1,4.1
			c0,1.3,0.1,2.2,0.2,2.7c1,2.2,2,4,3,5.2c1,1.2,2,2.1,3.1,2.7c1.1,0.6,2.3,1,3.6,1.1c1.3,0.1,2.8,0.2,4.6,0.2
			c2.4,0,4.5-0.4,6.4-1.1c1.8-0.7,3.5-1.6,5.1-2.7c1.6-1,3.1-2.2,4.5-3.4c1.4-1.3,2.9-2.4,4.4-3.5c1.5-1.1,3.2-2,5-2.7
			c1.8-0.7,3.9-1,6.2-1c0,4.6-0.8,8.6-2.4,12.1c-1.6,3.5-3.9,6.6-6.8,9.1c-2.9,2.5-6.4,4.4-10.3,5.8c-4,1.4-8.3,2-12.9,2
			c-4.4,0-8.3-1.5-11.8-4.5c-3.5-3-6.5-6.6-8.9-11c-2.5-4.3-4.4-8.9-5.7-13.8C1660,786,1659.3,781.7,1659.3,778z"/>
		<path class="st5" d="M1724.9,749.6c0-0.3,0-0.5,0.1-0.7c0-0.2,0-0.4,0.1-0.7c0.4-0.5,0.9-1.1,1.7-1.8c0.7-0.7,1.2-1.1,1.4-1.1
			h28.1c0-1-0.1-2.7-0.4-4.9s-0.5-4.7-0.8-7.4c-0.2-2.7-0.3-5.5-0.2-8.4c0.1-2.9,0.5-5.6,1.2-8c0.7-2.4,1.8-4.3,3.4-5.9
			c1.5-1.5,3.7-2.3,6.5-2.3c0,9.4,0.7,16.9,2,22.6c1.3,5.7,3,10,5.2,13.1c2.2,3.1,4.7,5.1,7.5,6c2.8,0.9,5.7,1.3,8.6,1.2
			s5.8-0.6,8.6-1.3c2.8-0.7,5.3-1.3,7.5-1.5c2.2-0.3,3.9-0.1,5.2,0.6c1.3,0.7,2,2.4,2,5c0,2-0.4,3.4-1.3,4.2c-0.9,0.8-2.6,1.5-5.1,2
			c-0.7,0.1-2,0.3-3.7,0.5c-1.7,0.2-3.7,0.4-5.8,0.6c-2.1,0.2-4.4,0.4-6.8,0.6c-2.4,0.2-4.7,0.4-6.8,0.6c-2.1,0.2-4.1,0.3-5.9,0.3
			c-1.8,0-3.1,0.1-3.9,0.1c0,0.5,0,1.3-0.1,2.4c-0.1,1.1-0.1,1.9-0.1,2.2c0,4.1,0.7,8.1,2,11.9c1.3,3.9,2.7,7.7,4.3,11.5
			c1.5,3.8,3,7.6,4.3,11.4c1.3,3.8,2,7.8,2,11.9c0,0.7-0.1,1.5-0.2,2.3c-0.1,0.8-0.4,1.5-0.8,2.1c-0.4,0.6-1,1.1-1.8,1.4
			c-0.8,0.3-1.9,0.3-3.3-0.2c-3.5-0.9-6.2-2.9-7.9-6c-1.7-3.1-3-6.7-3.8-11c-0.8-4.2-1.4-8.7-1.7-13.5s-0.7-9.2-1.3-13.3
			c-0.6-4.1-1.6-7.7-2.9-10.6c-1.3-2.9-3.4-4.7-6.3-5.4l-26.9-6.1c-0.4,0-0.9-0.4-1.7-1.2c-0.7-0.8-1.2-1.4-1.4-1.7
			c-0.1-0.2-0.1-0.4-0.1-0.7C1725,750.3,1724.9,750,1724.9,749.6z"/>
	</g>
</g>
</svg>
