<svg xmlns="http://www.w3.org/2000/svg" viewBox="0 0 263.28 258.07"><g id="Layer_2" data-name="Layer 2"><g id="burger_menu" data-name="burger menu"><path d="M262.92,61.5c-4.88-4-9.93-8.21-15.65-10.71-4.59-2-7.94-3.74-9-9a22.74,22.74,0,0,0-3.67-8.53c-3-4.27-7.12-7.83-9.91-12.22-4-6.22-10.24-9.52-16-13S196.17,2.4,189.56,1c-12.07-2.55-23.91.12-35.56,3.43-.28.08-.48.41-.74.58-3.28,2-6.68,3.79-9.81,6-4,2.82-8.77,5.28-11.62,9.09-4.44,5.92-9.38,11.53-12,18.92-2.42,6.87-6,13.34-6.19,20.8-.23,10.5.27,21-.39,31.49a38.74,38.74,0,0,1-4.19,14.27c-4.43,8.9-13.74,12.08-21.86,16.13-6.61,3.31-14,6.19-21.2,6.84-6.14.55-10.61,4.26-16.36,5.12C49,139.13,48,144.3,53,148.58s8.54,10.75,15.55,13.06c3,1,5.68,3.12,8.67,4.29,5.6,2.18,11.23,5.37,17,5.73,9.56.59,19.46,2.27,28.76-2.68,3.09-1.64,7-1.76,11.62-2.84l6.92,7.55c-1.81,2.27-3.21,4.13-4.7,5.92-3.53,4.26-8.4,5.94-13.43,7.88-7.23,2.78-14.49,5.52-22.16,5.63-8.93.13-17.71.52-26.88-2.05-8-2.24-15.15-5.61-22.46-9A20.72,20.72,0,0,1,46,178.29c-4.12-4.16-7.85-8.71-11.9-12.95-1.5-1.56-3.42-3.7-5.24-3.8a204.18,204.18,0,0,0-22,0c-6.31.31-8.69,6-5.25,11.66A26.45,26.45,0,0,1,2.52,176c1.46,3.25,2.39,7,4.6,9.61a193,193,0,0,0,16.42,17.3c5,4.67,10.73,8.61,16.14,12.88,3.81,3,7.37,6,12.57,7.1,3.94.82,7.16,4.73,11.1,5.88,7.14,2.07,14.58,3.1,21.9,4.58.9.19,1.78.5,2.86.81-1.45,2.29-2.33,4.69-4,6.13-3.82,3.25-3.32,7.48-1.94,10.93A10.43,10.43,0,0,0,91.5,258c5,.36,7.78-2.65,10.83-5.42,3.44-3.12,6.68-6.56,11.93-5.31a102.85,102.85,0,0,1,12,3.42c4.65,1.72,9,4.33,13.73,5.76,3.13.95,7.08,1.54,9.93.42,3.14-1.24,6.45-3.55,6.66-8.24.28-6.5-1.64-8.7-8.27-12.32-1-.52-1.45-1.95-2.16-3,3-1.36,5.95-2.74,8.94-4.07,1.8-.79,3.68-1.43,5.46-2.26,3.2-1.5,6.35-3.1,9.53-4.64,3.48-1.69,7-3.23,10.42-5.07a23.32,23.32,0,0,0,4.62-3.63c3.24-3.06,6.48-6.12,9.52-9.37q6-6.42,11.69-13.15a83.44,83.44,0,0,0,6.69-9.07,79.55,79.55,0,0,0,4.31-8.43q2.79-5.74,5.44-11.57a122.61,122.61,0,0,0,5.31-12.34c1.73-5.29,2.82-10.79,4.26-16.17,2-7.46,4.69-14.8,6-22.38,1.93-11.5,2.88-23.16,4.28-34.75,0-.28.38-.52.58-.79,4.25-1.39,8.56-2.62,12.73-4.23,2.17-.85,4.66-1.94,5.94-3.69S263.78,62.21,262.92,61.5Zm-52.55,3.28c-7.33,0-10.92-3.57-10.88-11,0-7.05,3.6-10.54,10.77-10.53S221,46.78,221,53.93C221,61.25,217.58,64.74,210.37,64.78Z"/></g></g></svg>