<svg xmlns="http://www.w3.org/2000/svg" viewBox="0 0 467.1 360.05"><defs><style>.cls-1{fill:#fff;}.cls-2{stroke:#fff;stroke-miterlimit:10;stroke-width:3px;}</style></defs><g id="Layer_2" data-name="Layer 2"><g id="burger_menu" data-name="burger menu"><path d="M408.4,219.18a8.86,8.86,0,0,1-17.72-.08,8.86,8.86,0,1,1,17.72.08Z"/><path class="cls-1" d="M406.83,211.72a10.24,10.24,0,0,0-7.39-3,10.39,10.39,0,1,0,.12,20.77h.09a10.21,10.21,0,0,0,10.25-10.31A10.44,10.44,0,0,0,406.83,211.72Zm-7.27,14.77a7.39,7.39,0,0,1-.1-14.77h.05a7.3,7.3,0,0,1,5.2,2.13,7.44,7.44,0,0,1,2.19,5.33,7.24,7.24,0,0,1-7.27,7.31Z"/><path d="M447.72,269.89c0,13.25,0,26.5,0,39.74a33.15,33.15,0,0,1-.54,6.22c-2.92,14.93-15.12,24.78-30.67,24.79H187.86q-68.73,0-137.45,0A30.05,30.05,0,0,1,28.52,332c-6.69-6.53-9.23-14.64-9.21-23.89q.14-60.56,0-121.11a17,17,0,0,0-.7-5.34,8.2,8.2,0,0,0-5.36-5.19V157.6c4-1.29,6.07-4.59,6.07-9.72q0-28.31,0-56.62V87.64l2,1.39c8.12,5.55,16.87,8.69,26.93,8.68q183.32-.15,366.63,0a41.88,41.88,0,0,1,7.85.47c15.18,3,24.76,14.81,24.9,30.84.1,13.06,0,26.12,0,39.19,0,.79-.1,1.58-.17,2.63h-3.34c-21.33,0-42.65.05-64,0a12.33,12.33,0,0,0-9.44,3.87C358.59,187,346.26,199.35,334,211.7c-5.08,5.1-5.08,9.74,0,14.86,12.21,12.29,24.49,24.52,36.61,36.9a12.91,12.91,0,0,0,9.93,4.07c21.23-.08,42.46,0,63.69,0h3.33C447.61,268.49,447.72,269.19,447.72,269.89Z"/><path class="cls-2" d="M465.41,126.65c-.13-17-8.16-30.15-22.34-39.47a3.83,3.83,0,0,1-2-3.68c.07-11.52.17-23,0-34.56A48,48,0,0,0,393,1.53q-171.62-.07-343.22,0A49.62,49.62,0,0,0,38.25,3C16.48,8.25,1.63,27.27,1.56,50c-.1,32.76,0,65.51,0,98.26,0,.63,0,1.27.06,1.9a8.82,8.82,0,0,0,10.5,7.72,10,10,0,0,0,1.17-.31c4-1.29,6.07-4.59,6.07-9.72q0-28.31,0-56.62V87.64l2,1.39c8.12,5.55,16.87,8.69,26.93,8.68q183.32-.15,366.63,0a41.88,41.88,0,0,1,7.85.47c15.18,3,24.76,14.81,24.9,30.84.1,13.06,0,26.12,0,39.19,0,.79-.1,1.58-.17,2.63h-3.34c-21.33,0-42.65.05-64,0a12.33,12.33,0,0,0-9.44,3.87C358.59,187,346.26,199.35,334,211.7c-5.08,5.1-5.08,9.74,0,14.86,12.21,12.29,24.49,24.52,36.61,36.9a12.91,12.91,0,0,0,9.93,4.07c21.23-.08,42.46,0,63.69,0h3.33c.08,1,.19,1.7.19,2.4,0,13.25,0,26.5,0,39.74a33.15,33.15,0,0,1-.54,6.22c-2.92,14.93-15.12,24.78-30.67,24.79H187.86q-68.73,0-137.45,0A30.05,30.05,0,0,1,28.52,332c-6.69-6.53-9.23-14.64-9.21-23.89q.14-60.56,0-121.11a17,17,0,0,0-.7-5.34,8.2,8.2,0,0,0-5.36-5.19,9.7,9.7,0,0,0-4.72-.25c-4.27.8-7,4.38-7,9.36,0,41.73-.12,83.46,0,125.2.1,26.66,21.62,47.78,48.43,47.78q183.59,0,367.17,0a46.37,46.37,0,0,0,8.65-.76c23.49-4.49,39.55-23.74,39.69-47.66.12-19.41,0-38.83,0-58.24C465.54,210.11,465.73,168.38,465.41,126.65Zm-268-67C194,65.83,190.46,72,186.83,78a3.75,3.75,0,0,1-2.61,1.71q-53.06.11-106.09,0a4.28,4.28,0,0,1-.6-.15c.41-.85.69-1.51,1-2.12C84,68,89.55,58.49,94.94,49a3.61,3.61,0,0,1,3.63-2.1q45.57.09,91.13,0c1.76,0,2.83.43,3.64,2.06,1.26,2.51,2.91,4.82,4.1,7.35A4.29,4.29,0,0,1,197.42,59.64Zm9.34,20.08c.42-.88.71-1.59,1.08-2.25,5.47-9.5,11-19,16.37-28.53a3.6,3.6,0,0,1,3.63-2.09q45.43.09,90.89,0a4,4,0,0,1,4,2.33C328,58.5,333.39,67.75,338.7,77c.44.76.83,1.55,1.43,2.69Zm216.53-2.18c0,.71-.09,1.42-.16,2.25h-6.82c-17.51,0-35-.05-52.53.06a4.4,4.4,0,0,1-4.42-2.62c-8-14-16.11-27.95-24-42-2.46-4.37-5.76-6.2-10.78-6.18q-51,.18-102.07,0c-5.27,0-8.9,1.75-11.14,6.49-.65,1.39-1.51,2.67-2.54,4.46-1.14-1.92-2.14-3.43-2.95-5-2.09-4.21-5.41-5.9-10.11-5.88-32.57.09-65.14,0-97.71,0-1.82,0-3.64.11-5.44,0-4.7-.31-7.85,1.73-10.16,5.81-7,12.46-14.62,24.64-21.24,37.33-3.08,5.89-6.57,9-13.3,7.58-3.33-.7-6.9-.75-10-2A30.16,30.16,0,0,1,19.78,44.68C22.51,30.08,34.47,19.5,49,19.46c42.55-.13,85.1-.07,127.65-.07h215c15.87,0,28,9.67,31,24.7a36.46,36.46,0,0,1,.59,6.76C423.34,59.75,423.3,68.65,423.29,77.54Zm24.22,172.1h-2.78c-20.05,0-40.09,0-60.14-.07a6.64,6.64,0,0,1-4.19-1.75c-8.86-8.72-17.58-17.56-26.34-26.38-.7-.69-1.36-1.42-2.15-2.25.61-.69,1.11-1.31,1.66-1.87,8.95-9,17.88-18,26.89-27a5.16,5.16,0,0,1,3.19-1.55c20.86-.09,41.72-.07,62.58-.06.35,0,.71.06,1.28.12Z"/></g></g></svg>